<svg width="1112" height="837" viewBox="0 0 1112 837" fill="none" xmlns="http://www.w3.org/2000/svg">
<g id="game 1" clip-path="url(#clip0)">
<g id="Group" opacity="0.1">
<path id="Vector" opacity="0.1" d="M541.8 264.25L547.85 264.74L544.72 270.91L538.85 270.03L541.8 264.25Z" fill="white"/>
</g>
<g id="Group_2" opacity="0.1">
<path id="Vector_2" opacity="0.1" d="M542.8 322.25L548.85 322.74L545.72 328.91L539.85 328.03L542.8 322.25Z" fill="white"/>
</g>
<g id="Group_3" opacity="0.1">
<path id="Vector_3" opacity="0.1" d="M575.8 271.25L581.85 271.74L578.72 277.91L572.85 277.03L575.8 271.25Z" fill="white"/>
</g>
<g id="Group_4" opacity="0.1">
<path id="Vector_4" opacity="0.1" d="M638.8 274.25L644.85 274.74L641.72 280.91L635.85 280.03L638.8 274.25Z" fill="white"/>
</g>
<g id="Group_5" opacity="0.1">
<path id="Vector_5" opacity="0.1" d="M553.8 282.25L559.85 282.74L556.72 288.91L550.85 288.03L553.8 282.25Z" fill="white"/>
</g>
<g id="Group_6" opacity="0.1">
<path id="Vector_6" opacity="0.1" d="M575.8 343.25L581.85 343.74L578.72 349.91L572.85 349.03L575.8 343.25Z" fill="white"/>
</g>
<g id="Group_7" opacity="0.1">
<path id="Vector_7" opacity="0.1" d="M521.8 308.25L527.85 308.74L524.72 314.91L518.85 314.03L521.8 308.25Z" fill="white"/>
</g>
<g id="Group_8" opacity="0.1">
<path id="Vector_8" opacity="0.1" d="M613.8 271.25L619.85 271.74L616.72 277.91L610.85 277.03L613.8 271.25Z" fill="white"/>
</g>
<g id="Group_9" opacity="0.1">
<path id="Vector_9" opacity="0.1" d="M565.8 305.25L571.85 305.74L568.72 311.91L562.85 311.03L565.8 305.25Z" fill="white"/>
</g>
<g id="Group_10" opacity="0.1">
<path id="Vector_10" opacity="0.1" d="M558.8 267.25L564.85 267.74L561.72 273.91L555.85 273.03L558.8 267.25Z" fill="white"/>
</g>
<g id="Group_11" opacity="0.1">
<path id="Vector_11" opacity="0.1" d="M589.8 302.25L595.85 302.74L592.72 308.91L586.85 308.03L589.8 302.25Z" fill="white"/>
</g>
<g id="Group_12" opacity="0.1">
<path id="Vector_12" opacity="0.1" d="M596.8 271.25L602.85 271.74L599.72 277.91L593.85 277.03L596.8 271.25Z" fill="white"/>
</g>
<g id="Group_13" opacity="0.1">
<path id="Vector_13" opacity="0.1" d="M533.8 285.25L539.85 285.74L536.72 291.91L530.85 291.03L533.8 285.25Z" fill="white"/>
</g>
<path id="Vector_14" d="M435.85 425.08C440.544 425.08 444.35 422.841 444.35 420.08C444.35 417.319 440.544 415.08 435.85 415.08C431.156 415.08 427.35 417.319 427.35 420.08C427.35 422.841 431.156 425.08 435.85 425.08Z" fill="#575988"/>
<path id="Vector_15" d="M442.85 436.08C447.544 436.08 451.35 433.841 451.35 431.08C451.35 428.319 447.544 426.08 442.85 426.08C438.156 426.08 434.35 428.319 434.35 431.08C434.35 433.841 438.156 436.08 442.85 436.08Z" fill="#FA595F"/>
<path id="Vector_16" d="M418.85 433.08C423.544 433.08 427.35 430.841 427.35 428.08C427.35 425.319 423.544 423.08 418.85 423.08C414.156 423.08 410.35 425.319 410.35 428.08C410.35 430.841 414.156 433.08 418.85 433.08Z" fill="#FFD037"/>
<path id="Vector_17" d="M335.63 334.84C335.63 334.84 387.2 415.43 442.42 415.24L457.42 392.24C457.42 392.24 406.88 356.14 400.16 337.32C397.68 330.32 392.56 320.73 387.1 311.32C370.33 282.49 325.1 301.32 335.04 333C335.233 333.627 335.43 334.24 335.63 334.84Z" fill="url(#paint0_linear)"/>
<path id="Vector_18" d="M302.06 803.27L304.48 831.27C304.48 831.27 383.69 818.11 383 791.8C382.31 765.49 302.06 803.27 302.06 803.27Z" fill="url(#paint1_linear)"/>
<path id="Vector_19" d="M396.14 574.54C396.14 574.54 389.64 592.54 381.34 613.16C373.4 632.9 363.82 655.09 356.71 666.3C342.18 689.24 340.11 760.09 340.11 760.09C337.34 771.56 351.18 793.83 351.18 793.83C323.51 822.83 297.91 805.98 297.91 805.98C302.75 797.21 294.45 772.24 294.45 772.24C294.45 772.24 305.52 656.86 312.45 651.46C319.38 646.06 324.9 619.07 324.9 619.07L318.71 527.35L317.29 506.35L376.78 480.04L381.07 500.96L385.32 521.67L396.14 574.54Z" fill="url(#paint2_linear)"/>
<path id="Vector_20" d="M448.02 797.88C435.57 819.47 392.02 816.77 392.02 816.77V753.34C392.02 753.34 379.57 682.49 386.49 666.34C393.41 650.19 383.72 620.46 383.72 620.46L381.34 613.17L353.13 526.17L344.95 500.95H438.34C438.34 500.95 438.34 505.27 438.34 512.29C438.46 539.29 439.02 606.2 441.77 621.73C445.23 641.3 435.54 654.12 435.54 654.12C435.54 654.12 441.07 733.74 436.23 758.7C431.39 783.66 448.02 797.88 448.02 797.88Z" fill="url(#paint3_linear)"/>
<path id="Vector_21" d="M371.24 204.78C371.24 204.78 356.71 243.91 327.66 258.08C298.61 272.25 375.39 276.3 375.39 276.3C375.39 276.3 387.84 246.61 416.2 225.69L371.24 204.78Z" fill="url(#paint4_linear)"/>
<g id="Group_14" opacity="0.1">
<path id="Vector_22" opacity="0.1" d="M438.37 512.33C426.79 514.56 406.3 518.38 385.31 521.7C374.31 523.44 363.19 525.04 353.13 526.2C337.65 527.99 324.7 528.74 318.7 527.34L317.28 506.34L376.77 480.03L381.06 500.95H438.34C438.34 500.95 438.34 505.31 438.37 512.33Z" fill="url(#paint5_linear)"/>
</g>
<g id="Group_15" opacity="0.1">
<path id="Vector_23" opacity="0.1" d="M426.61 435.76C384.18 409.94 362.24 337.7 362.24 337.7C362.24 337.07 362.24 336.45 362.17 335.84C361.22 302.71 410 296.33 418.28 328.48C420.97 338.95 423.28 349.57 423.76 356.91C424.022 359.611 424.644 362.264 425.61 364.8C426.247 378.464 426.107 392.152 425.19 405.8C424.544 415.808 425.02 425.858 426.61 435.76V435.76Z" fill="url(#paint6_linear)"/>
</g>
<g id="Group_16" opacity="0.1">
<path id="Vector_24" opacity="0.1" d="M363.97 228.06C370.87 239.47 376.33 250.96 390.34 252.91C397.218 244.182 405.213 236.395 414.12 229.75L369.12 208.83C369.12 208.83 371.76 215.97 363.97 228.06Z" fill="url(#paint7_linear)"/>
</g>
<g id="Group_17" opacity="0.1">
<path id="Vector_25" opacity="0.1" d="M444.04 218.74C445.929 218.821 447.799 218.326 449.4 217.32C451.59 215.73 452.29 212.88 452.79 210.26C453.98 204.07 454.91 197.55 452.79 191.59C451.42 187.65 448.79 184.24 446.95 180.5C442.85 172.33 442.12 162.5 436.27 155.41C432.62 150.97 419.79 155.41 414.43 153.17C402.91 148.33 397.91 138.51 385.36 138.52C380.761 138.408 376.171 138.981 371.74 140.22C366.13 141.95 361.17 145.22 356.56 148.81C348.56 155.03 340.72 163.57 341.43 173.55C341.89 179.92 345.78 185.55 348.07 191.49C351.91 201.49 351.21 212.73 348.44 223.09C347.26 227.5 345.91 232.77 349.04 236.14C351.04 238.25 354.21 238.85 357.04 238.39C359.863 237.764 362.565 236.684 365.04 235.19C369.54 232.8 374.1 230.37 377.74 226.86C380.15 224.54 382.09 221.8 384.38 219.37C388.864 214.723 393.941 210.688 399.48 207.37C403.91 204.71 408.48 206.37 413.13 208.1C423.35 211.85 432.8 218.94 444.04 218.74Z" fill="url(#paint8_linear)"/>
</g>
<g id="Group_18" opacity="0.05">
<path id="Vector_26" opacity="0.05" d="M426.61 435.76C425.024 425.874 424.548 415.842 425.19 405.85C426.107 392.202 426.247 378.514 425.61 364.85C424.99 348.85 423.73 333.02 422.52 320.45C420.726 301.474 411.647 283.932 397.19 271.51C393.98 268.76 391.12 266.73 389.19 266.23C386.78 265.59 383.83 263.67 380.91 261.34C371.09 253.51 383.57 268.76 386.78 271.51C401.237 283.932 410.316 301.474 412.11 320.45C413.31 333.02 414.58 348.85 415.2 364.85C415.837 378.514 415.697 392.202 414.78 405.85C414.138 415.842 414.614 425.874 416.2 435.76C421.58 472.19 437.61 508.41 437.61 508.41C437.61 508.41 359.35 524.22 322.93 525.9C351.47 527.9 447.98 508.41 447.98 508.41C447.98 508.41 431.99 472.17 426.61 435.76Z" fill="url(#paint9_linear)"/>
</g>
<g id="Group_19" opacity="0.1">
<path id="Vector_27" opacity="0.1" d="M465.76 425.43L450.61 438.74C445.72 436.15 441.8 434.19 441.8 434.19L457.71 421.37L465.76 425.43Z" fill="url(#paint10_linear)"/>
</g>
<g id="Machine">
<path id="Vector_28" d="M377.35 490.08L576.35 536.08L577.35 488.08L520.35 466.08L406.35 447.08H373.35L377.35 490.08Z" fill="#D6D6E3"/>
<path id="Vector_29" d="M464.85 92.58L469.85 99.58L497.85 112.58L719.85 106.58L698.35 100.08L675.35 90.08L678.35 82.08L464.85 92.58Z" fill="#A8A8A8"/>
<path id="Vector_30" d="M521.35 218.08L724.35 231.08V193.08L710.35 108.08L703.35 102.08L500.35 108.08L521.35 218.08Z" fill="#D6D6E3"/>
<path id="Vector_31" d="M465.35 27.08H455.35L453.35 100.08L486.35 112.08L506.35 217.08L415.35 403.08L360.35 446.08V487.08L393.35 520.08L395.35 671.08L405.35 673.08L403.35 523.08L370.35 488.08L369.35 446.08L424.35 404.08L515.35 218.08L495.35 112.08L462.35 98.08L465.35 27.08Z" fill="#535461"/>
<path id="Vector_32" d="M427.35 407.08L630.35 440.08L671.35 353.08L727.35 228.08L521.35 218.08L427.35 407.08Z" fill="#FFCC00"/>
<path id="Vector_33" d="M373 447.5L571 487.5L625.54 439.78L427.5 406L373 447.5Z" fill="#D6D6E3"/>
<path id="Vector_34" d="M410.35 517.08V673.08L606.35 741.08L609.35 579.08L601.35 564.01L565.35 555.08L410.35 517.08Z" fill="#535461"/>
<path id="Vector_35" d="M686.35 11.08L782.35 17.08L769.35 653.08L613.35 746.08V573.08L581.35 537.08V487.08L637.35 438.08L732.35 227.08L715.35 106.08L681.35 91.08L686.35 11.08Z" fill="#535461"/>
<path id="Vector_36" d="M790.08 13.62L721.78 9.48L682.26 6.66V6.59H681.77H681.22V6.67L468.71 23.67H451.09L449.02 97.02L483.23 109.08L503.96 214.58L409.63 401.45L352.63 444.65V485.84L386.84 519L388.91 670.72L399.28 672.72V671.11L404.49 672.11V672.71L606.94 740.79L615.45 746.56L633.25 735.47L776.65 652.62L790.08 13.62ZM572.43 484.94L627.89 437.94L572.43 484.94ZM380.08 504.44L395.08 519.01V519.91L380.08 504.44Z" fill="url(#paint11_linear)"/>
<path id="Vector_37" d="M407.35 522.08L609.35 573.08L579.35 539.08L562.35 518.08L385.35 483.08L377.35 490.08L407.35 522.08Z" fill="#535461"/>
<path id="Vector_38" opacity="0.1" d="M532.35 254.08L669.35 265.08L598.35 405.08L465.35 385.08L532.35 254.08Z" fill="white"/>
<g id="Console">
<path id="Vector_39" d="M526.85 443.08C531.544 443.08 535.35 440.841 535.35 438.08C535.35 435.319 531.544 433.08 526.85 433.08C522.156 433.08 518.35 435.319 518.35 438.08C518.35 440.841 522.156 443.08 526.85 443.08Z" fill="#575988"/>
<path id="Vector_40" d="M509.85 452.08C514.544 452.08 518.35 449.841 518.35 447.08C518.35 444.319 514.544 442.08 509.85 442.08C505.156 442.08 501.35 444.319 501.35 447.08C501.35 449.841 505.156 452.08 509.85 452.08Z" fill="#FFD037"/>
<path id="Vector_41" d="M477.85 438.08C484.754 438.08 490.35 435.394 490.35 432.08C490.35 428.766 484.754 426.08 477.85 426.08C470.946 426.08 465.35 428.766 465.35 432.08C465.35 435.394 470.946 438.08 477.85 438.08Z" fill="#A8A8A8"/>
<path id="Vector_42" d="M535.85 454.08C540.544 454.08 544.35 451.841 544.35 449.08C544.35 446.319 540.544 444.08 535.85 444.08C531.156 444.08 527.35 446.319 527.35 449.08C527.35 451.841 531.156 454.08 535.85 454.08Z" fill="#FA595F"/>
<path id="Vector_43" d="M481.35 431.09H475.35L470.19 411.17C469.973 410.332 469.951 409.455 470.126 408.608C470.3 407.76 470.666 406.963 471.196 406.279C471.726 405.594 472.406 405.04 473.183 404.659C473.96 404.278 474.814 404.08 475.68 404.08V404.08C477.184 404.08 478.626 404.677 479.689 405.741C480.753 406.804 481.35 408.246 481.35 409.75V431.09Z" fill="#A8A8A8"/>
<path id="Vector_44" d="M567.85 454.08C574.754 454.08 580.35 451.394 580.35 448.08C580.35 444.766 574.754 442.08 567.85 442.08C560.946 442.08 555.35 444.766 555.35 448.08C555.35 451.394 560.946 454.08 567.85 454.08Z" fill="#A8A8A8"/>
<path id="Vector_45" d="M571 447.51H565L559.84 427.59C559.623 426.752 559.601 425.875 559.776 425.028C559.95 424.18 560.316 423.383 560.846 422.699C561.376 422.014 562.056 421.46 562.833 421.079C563.61 420.698 564.464 420.5 565.33 420.5V420.5C566.834 420.5 568.276 421.097 569.339 422.161C570.403 423.224 571 424.666 571 426.17V447.51Z" fill="#A8A8A8"/>
</g>
<path id="Vector_46" d="M473.35 27.08H463.35L461.35 100.08L494.35 112.08L514.35 217.08L423.35 403.08L368.35 446.08V487.08L401.35 520.08L403.35 671.08L413.35 673.08L411.35 523.08L378.35 488.08L377.35 446.08L430.35 404.08L523.35 218.08L503.35 112.08L470.35 98.08L473.35 27.08Z" fill="#D6D6E3"/>
<path id="Vector_47" d="M472.35 27.08L678.35 10.08L673.35 85.08L467.35 95.08L472.35 27.08Z" fill="#535461"/>
<path id="Vector_48" d="M677.35 10.08L772.35 17.08L759.35 653.08L613.85 746.58L603.85 739.58L603.35 573.08L571.35 537.08V487.08L627.35 438.08L722.35 227.08L708.85 106.58H715.85L671.35 91.08L677.35 10.08Z" fill="#D6D6E3"/>
</g>
<g id="Boy">
<path id="Vector_49" d="M394.76 812.04L393.38 836.33C393.38 836.33 503.38 828.23 499.22 805.33C495.06 782.43 436.96 795.17 436.96 795.17L394.76 812.04Z" fill="url(#paint12_linear)"/>
<g id="Group_20" opacity="0.1">
<path id="Vector_50" opacity="0.1" d="M396.14 574.54C396.14 574.54 389.64 592.54 381.34 613.16C373.4 632.9 363.82 655.09 356.71 666.3C342.18 689.24 340.11 760.09 340.11 760.09C337.34 771.56 351.18 793.83 351.18 793.83C323.51 822.83 297.91 805.98 297.91 805.98C302.75 797.21 294.45 772.24 294.45 772.24C294.45 772.24 305.52 656.86 312.45 651.46C319.38 646.06 324.9 619.07 324.9 619.07L318.71 527.35L317.29 506.35L376.78 480.04L381.07 500.96L385.32 521.67L396.14 574.54Z" fill="url(#paint13_linear)"/>
</g>
<path id="Vector_51" d="M448.02 508.41C448.02 508.41 331.11 532.03 316.59 524.61C302.07 517.19 298.59 498.3 302.75 477.38C306.91 456.46 302.75 404.51 295.14 338.38C291.31 305.08 299.75 282.73 309.09 268.75C313.189 262.724 318.709 257.799 325.162 254.411C331.614 251.022 338.802 249.274 346.09 249.32C358.735 249.268 371.025 253.498 380.96 261.32C383.88 263.65 386.83 265.56 389.24 266.21C391.14 266.72 394 268.74 397.24 271.49C411.667 283.915 420.724 301.444 422.51 320.4C423.71 332.97 424.98 348.8 425.6 364.8C426.237 378.464 426.097 392.152 425.18 405.8C424.538 415.792 425.014 425.824 426.6 435.71C431.99 472.17 448.02 508.41 448.02 508.41Z" fill="url(#paint14_linear)"/>
<path id="Vector_52" d="M522.04 442.29C500.59 466.58 469.47 450.39 469.47 450.39C468.2 448.33 458.22 442.78 450.61 438.74C445.72 436.15 441.8 434.19 441.8 434.19L457.71 421.37L465.76 425.43L477.76 431.49C477.76 431.49 543.51 418 522.04 442.29Z" fill="url(#paint15_linear)"/>
<path id="Vector_53" d="M363.63 335.68C363.63 335.68 391.3 426.77 444.57 440.94L465.32 422.72C465.32 422.72 426.51 374.78 425.15 354.89C424.66 347.54 422.36 336.89 419.67 326.46C411.39 294.32 362.61 300.69 363.56 333.82C363.58 334.433 363.603 335.053 363.63 335.68Z" fill="url(#paint16_linear)"/>
<path id="Hand2" d="M512.471 396.324C499.121 424.604 466.351 417.324 466.351 417.324C464.651 415.714 454.051 413.024 446.021 411.164C440.861 409.964 436.761 409.164 436.761 409.164L448.021 393.074L456.461 394.854L469.051 397.504C469.051 397.504 525.821 368.034 512.471 396.324Z" fill="#D7AC94"/>
<path id="Vector_54" d="M307.481 793.324L309.781 820.644C309.781 820.644 385.161 807.804 384.501 782.134C383.841 756.464 307.481 793.324 307.481 793.324Z" fill="#535461"/>
<path id="Vector_55" d="M395.701 801.884L394.381 825.594C394.381 825.594 499.061 817.694 495.111 795.314C491.161 772.934 435.861 785.434 435.861 785.434L395.701 801.884Z" fill="#535461"/>
<path id="Vector_56" d="M397.011 570.144C397.011 570.144 390.821 587.684 382.921 607.824C375.361 627.084 366.241 648.734 359.481 659.674C345.701 682.064 343.701 751.184 343.701 751.184C341.071 762.374 354.231 784.104 354.231 784.104C327.901 812.414 303.541 795.954 303.541 795.954C308.151 787.394 300.251 763.034 300.251 763.034C300.251 763.034 310.781 650.454 317.371 645.194C323.961 639.934 329.211 613.594 329.211 613.594L323.321 524.104L321.971 503.654L378.591 477.974L382.701 498.384L386.701 518.594L397.011 570.144Z" fill="#6A5C99"/>
<path id="Vector_57" d="M373.311 209.374C373.311 209.374 359.481 247.554 331.831 261.374C304.181 275.194 377.261 279.154 377.261 279.154C377.261 279.154 389.111 250.154 416.101 229.774L373.311 209.374Z" fill="#F7C4A7"/>
<path id="Vector_58" opacity="0.1" d="M437.201 509.454C426.181 511.594 406.701 515.354 386.701 518.594C376.241 520.294 365.651 521.854 356.071 522.984C341.341 524.724 329.011 525.464 323.301 524.094L321.951 503.644L378.571 477.964L382.701 498.384H437.211C437.211 498.384 437.171 502.594 437.201 509.454Z" fill="black"/>
<path id="Vector_59" opacity="0.1" d="M426.011 434.744C385.631 409.554 364.751 339.064 364.751 339.064C364.751 338.454 364.751 337.844 364.681 337.254C363.781 304.934 410.201 298.704 418.081 330.074C420.641 340.294 422.831 350.644 423.291 357.814C423.539 360.447 424.131 363.035 425.051 365.514C425.66 378.844 425.53 392.198 424.661 405.514C424.046 415.278 424.499 425.079 426.011 434.744Z" fill="black"/>
<path id="Vector_60" opacity="0.1" d="M366.401 232.084C372.961 243.214 378.161 254.434 391.501 256.324C398.022 247.832 405.631 240.234 414.131 233.724L371.341 213.314C371.341 213.314 373.811 220.294 366.401 232.084Z" fill="black"/>
<path id="Vector_61" d="M339.431 336.274C339.431 336.274 388.511 414.914 441.051 414.714L455.341 392.314C455.341 392.314 407.251 357.094 400.851 338.724C398.491 331.944 393.621 322.544 388.431 313.384C372.431 285.264 329.431 303.634 338.881 334.544C339.061 335.111 339.245 335.687 339.431 336.274Z" fill="#575988"/>
<path id="Vector_62" opacity="0.1" d="M307.481 793.324L309.781 820.644C309.781 820.644 385.161 807.804 384.501 782.134C383.841 756.464 307.481 793.324 307.481 793.324Z" fill="black"/>
<path id="Vector_63" opacity="0.1" d="M456.461 394.754L446.021 411.114C440.861 409.914 436.761 409.114 436.761 409.114L448.021 393.024L456.461 394.754Z" fill="black"/>
<path id="Leg2" opacity="0.1" d="M397.011 570.144C397.011 570.144 390.821 587.684 382.921 607.824C375.361 627.084 366.241 648.734 359.481 659.674C345.701 682.064 343.701 751.184 343.701 751.184C341.071 762.374 354.231 784.104 354.231 784.104C327.901 812.414 303.541 795.954 303.541 795.954C308.151 787.394 300.251 763.034 300.251 763.034C300.251 763.034 310.781 650.454 317.371 645.194C323.961 639.934 329.211 613.594 329.211 613.594L323.321 524.104L321.971 503.654L378.591 477.974L382.701 498.384L386.701 518.594L397.011 570.144Z" fill="black"/>
<path id="Leg" d="M446.391 788.054C434.541 809.124 393.061 806.484 393.061 806.484V744.594C393.061 744.594 381.211 675.464 387.791 659.664C394.371 643.864 385.161 614.894 385.161 614.894L382.921 607.814L356.071 522.974L348.291 498.374H437.171C437.171 498.374 437.171 502.584 437.171 509.444C437.281 535.774 437.821 601.074 440.441 616.224C443.731 635.314 434.511 647.824 434.511 647.824C434.511 647.824 439.781 725.504 435.171 749.824C430.561 774.144 446.391 788.054 446.391 788.054Z" fill="#6A5C99"/>
<path id="Vector_64" d="M446.391 505.594C446.391 505.594 335.131 528.594 321.311 521.394C307.491 514.194 304.191 495.714 308.141 475.314C312.091 454.914 308.141 404.214 300.901 339.694C297.251 307.204 305.291 285.404 314.171 271.754C317.996 265.91 323.218 261.112 329.364 257.795C335.51 254.477 342.387 252.745 349.371 252.754C361.448 252.712 373.168 256.841 382.551 264.444C385.331 266.714 388.141 268.584 390.431 269.214C392.241 269.704 394.961 271.684 398.011 274.364C411.841 286.625 420.466 303.706 422.121 322.114C423.271 334.374 424.471 349.824 425.061 365.444C425.67 378.774 425.54 392.128 424.671 405.444C424.06 415.191 424.512 424.975 426.021 434.624C431.131 470.284 446.391 505.594 446.391 505.594Z" fill="#575988"/>
<path id="Hand1" d="M516.831 441.114C496.421 464.814 466.831 449.014 466.831 449.014C465.631 447.014 456.131 441.584 448.831 437.654C444.181 435.124 440.451 433.214 440.451 433.214L455.591 420.704L463.251 424.704L474.701 430.594C474.701 430.594 537.241 417.414 516.831 441.114Z" fill="#D7AC94"/>
<path id="Vector_65" opacity="0.1" d="M463.271 424.664L448.851 437.664C444.201 435.134 440.471 433.224 440.471 433.224L455.611 420.714L463.271 424.664Z" fill="black"/>
<path id="Vector_66" opacity="0.05" d="M339.431 336.274C339.431 336.274 388.511 414.914 441.051 414.714L455.341 392.314C455.341 392.314 407.251 357.094 400.851 338.724C398.491 331.944 393.621 322.544 388.431 313.384C372.431 285.264 329.431 303.634 338.881 334.544C339.061 335.111 339.245 335.687 339.431 336.274Z" fill="black"/>
<path id="Vector_67" d="M366.071 337.094C366.071 337.094 392.401 425.974 443.071 439.794L462.821 422.014C462.821 422.014 425.821 375.244 424.591 355.834C424.121 348.664 421.941 338.304 419.371 328.094C411.491 296.734 365.071 302.954 365.981 335.274C366.015 335.874 366.045 336.481 366.071 337.094Z" fill="#575988"/>
<g id="Head">
<path id="Vector_68" d="M399.651 252.824C423.648 252.824 443.101 233.371 443.101 209.374C443.101 185.377 423.648 165.924 399.651 165.924C375.655 165.924 356.201 185.377 356.201 209.374C356.201 233.371 375.655 252.824 399.651 252.824Z" fill="#F7C4A7"/>
<path id="Vector_69" d="M398.91 249.3C424.127 249.3 444.57 229.363 444.57 204.77C444.57 180.177 424.127 160.24 398.91 160.24C373.693 160.24 353.25 180.177 353.25 204.77C353.25 229.363 373.693 249.3 398.91 249.3Z" fill="url(#paint17_linear)"/>
<path id="Vector_70" d="M441.941 222.334C443.743 222.413 445.525 221.93 447.041 220.954C449.121 219.404 449.791 216.614 450.261 214.064C451.391 208.064 452.261 201.664 450.261 195.844C448.961 191.994 446.491 188.674 444.701 185.024C440.791 177.024 440.101 167.464 434.541 160.544C431.061 156.214 419.541 161.214 414.411 159.014C403.411 154.294 398.031 144.014 386.091 144.014C381.699 143.902 377.315 144.461 373.091 145.674C367.751 147.354 363.031 150.574 358.651 154.054C351.011 160.124 343.571 168.454 344.251 178.194C344.691 184.414 348.391 189.854 350.571 195.694C354.231 205.474 353.571 216.424 350.921 226.524C349.801 230.824 348.511 235.964 351.491 239.264C353.351 241.314 356.411 241.914 359.141 241.454C361.847 240.846 364.432 239.791 366.791 238.334C371.071 236.004 375.411 233.634 378.871 230.214C381.161 227.944 383.011 225.274 385.191 222.904C389.488 218.387 394.368 214.462 399.701 211.234C403.921 208.644 408.251 210.234 412.701 211.944C422.251 215.594 431.241 222.534 441.941 222.334Z" fill="#632652"/>
<path id="Vector_71" opacity="0.1" d="M442.601 222.994C444.405 223.067 446.187 222.578 447.701 221.594C449.781 220.044 450.451 217.254 450.921 214.704C452.051 208.704 452.921 202.304 450.921 196.484C449.621 192.634 447.151 189.314 445.361 185.664C441.451 177.664 440.761 168.104 435.201 161.184C431.721 156.854 419.521 161.184 414.411 158.994C403.411 154.274 398.691 144.694 386.751 144.704C382.359 144.592 377.975 145.151 373.751 146.364C368.411 148.044 363.691 151.264 359.311 154.744C351.671 160.814 344.231 169.144 344.911 178.884C345.351 185.104 349.051 190.544 351.231 196.384C354.891 206.164 354.231 217.114 351.581 227.214C350.461 231.514 349.171 236.654 352.151 239.954C354.011 242.004 357.071 242.604 359.801 242.144C362.507 241.536 365.092 240.481 367.451 239.024C371.731 236.694 376.071 234.324 379.531 230.904C381.821 228.634 383.671 225.964 385.851 223.594C390.102 219.073 394.935 215.135 400.221 211.884C404.441 209.294 408.771 210.884 413.221 212.594C422.911 216.274 431.901 223.194 442.601 222.994Z" fill="black"/>
<path id="Vector_72" d="M443.35 218.06C445.239 218.141 447.109 217.646 448.71 216.64C450.9 215.05 451.6 212.2 452.1 209.58C453.29 203.39 454.22 196.87 452.1 190.91C450.73 186.97 448.1 183.56 446.26 179.82C442.16 171.65 441.43 161.82 435.58 154.73C431.93 150.29 419.79 155.41 414.43 153.16C402.91 148.32 397.22 137.83 384.67 137.84C380.071 137.728 375.481 138.301 371.05 139.54C365.44 141.27 360.48 144.54 355.87 148.13C347.87 154.35 340.03 162.89 340.74 172.87C341.2 179.24 345.09 184.87 347.38 190.81C351.22 200.81 350.52 212.05 347.75 222.41C346.57 226.82 345.22 232.09 348.35 235.46C350.35 237.57 353.52 238.17 356.35 237.71C359.173 237.085 361.875 236.004 364.35 234.51C368.85 232.12 373.41 229.69 377.05 226.18C379.46 223.86 381.4 221.12 383.69 218.69C388.174 214.043 393.251 210.008 398.79 206.69C403.22 204.03 407.79 205.69 412.44 207.42C422.66 211.17 432.11 218.26 443.35 218.06Z" fill="url(#paint18_linear)"/>
</g>
<path id="Vector_73" opacity="0.05" d="M310.211 425.834C310.211 425.834 328.211 411.664 344.801 422.464C361.391 433.264 385.611 431.914 389.071 432.584" fill="url(#paint19_linear)"/>
</g>
</g>
<defs>
<linearGradient id="paint0_linear" x1="54805.6" y1="53126.5" x2="54805.6" y2="39170.5" gradientUnits="userSpaceOnUse">
<stop stop-color="#808080" stop-opacity="0.25"/>
<stop offset="0.54" stop-color="#808080" stop-opacity="0.12"/>
<stop offset="1" stop-color="#808080" stop-opacity="0.1"/>
</linearGradient>
<linearGradient id="paint1_linear" x1="31629.2" y1="42889.4" x2="31629.2" y2="40509.2" gradientUnits="userSpaceOnUse">
<stop stop-color="#808080" stop-opacity="0.25"/>
<stop offset="0.54" stop-color="#808080" stop-opacity="0.12"/>
<stop offset="1" stop-color="#808080" stop-opacity="0.1"/>
</linearGradient>
<linearGradient id="paint2_linear" x1="39932.2" y1="279245" x2="39932.2" y2="169821" gradientUnits="userSpaceOnUse">
<stop stop-color="#808080" stop-opacity="0.25"/>
<stop offset="0.54" stop-color="#808080" stop-opacity="0.12"/>
<stop offset="1" stop-color="#808080" stop-opacity="0.1"/>
</linearGradient>
<linearGradient id="paint3_linear" x1="45796.8" y1="268632" x2="45796.8" y2="168834" gradientUnits="userSpaceOnUse">
<stop stop-color="#808080" stop-opacity="0.25"/>
<stop offset="0.54" stop-color="#808080" stop-opacity="0.12"/>
<stop offset="1" stop-color="#808080" stop-opacity="0.1"/>
</linearGradient>
<linearGradient id="paint4_linear" x1="39612.5" y1="22242.2" x2="39612.5" y2="17127.1" gradientUnits="userSpaceOnUse">
<stop stop-color="#808080" stop-opacity="0.25"/>
<stop offset="0.54" stop-color="#808080" stop-opacity="0.12"/>
<stop offset="1" stop-color="#808080" stop-opacity="0.1"/>
</linearGradient>
<linearGradient id="paint5_linear" x1="51454.8" y1="27376.4" x2="51454.8" y2="25070.6" gradientUnits="userSpaceOnUse">
<stop stop-color="#808080" stop-opacity="0.25"/>
<stop offset="0.54" stop-color="#808080" stop-opacity="0.12"/>
<stop offset="1" stop-color="#808080" stop-opacity="0.1"/>
</linearGradient>
<linearGradient id="paint6_linear" x1="28649.6" y1="60322.3" x2="28649.6" y2="43850" gradientUnits="userSpaceOnUse">
<stop stop-color="#808080" stop-opacity="0.25"/>
<stop offset="0.54" stop-color="#808080" stop-opacity="0.12"/>
<stop offset="1" stop-color="#808080" stop-opacity="0.1"/>
</linearGradient>
<linearGradient id="paint7_linear" x1="22106" y1="12759.7" x2="22106" y2="10817.1" gradientUnits="userSpaceOnUse">
<stop stop-color="#808080" stop-opacity="0.25"/>
<stop offset="0.54" stop-color="#808080" stop-opacity="0.12"/>
<stop offset="1" stop-color="#808080" stop-opacity="0.1"/>
</linearGradient>
<linearGradient id="paint8_linear" x1="50168.4" y1="27181.4" x2="50168.4" y2="17177.5" gradientUnits="userSpaceOnUse">
<stop stop-color="#808080" stop-opacity="0.25"/>
<stop offset="0.54" stop-color="#808080" stop-opacity="0.12"/>
<stop offset="1" stop-color="#808080" stop-opacity="0.1"/>
</linearGradient>
<linearGradient id="paint9_linear" x1="54093.2" y1="149167" x2="54093.2" y2="77908" gradientUnits="userSpaceOnUse">
<stop stop-color="#808080" stop-opacity="0.25"/>
<stop offset="0.54" stop-color="#808080" stop-opacity="0.12"/>
<stop offset="1" stop-color="#808080" stop-opacity="0.1"/>
</linearGradient>
<linearGradient id="paint10_linear" x1="12380.3" y1="8595.17" x2="12380.3" y2="8293.45" gradientUnits="userSpaceOnUse">
<stop stop-color="#808080" stop-opacity="0.25"/>
<stop offset="0.54" stop-color="#808080" stop-opacity="0.12"/>
<stop offset="1" stop-color="#808080" stop-opacity="0.1"/>
</linearGradient>
<linearGradient id="paint11_linear" x1="571.35" y1="746.59" x2="571.35" y2="6.59" gradientUnits="userSpaceOnUse">
<stop stop-color="#808080" stop-opacity="0.25"/>
<stop offset="0.54" stop-color="#808080" stop-opacity="0.12"/>
<stop offset="1" stop-color="#808080" stop-opacity="0.1"/>
</linearGradient>
<linearGradient id="paint12_linear" x1="52400.4" y1="39593.4" x2="52400.4" y2="37594.3" gradientUnits="userSpaceOnUse">
<stop stop-color="#808080" stop-opacity="0.25"/>
<stop offset="0.54" stop-color="#808080" stop-opacity="0.12"/>
<stop offset="1" stop-color="#808080" stop-opacity="0.1"/>
</linearGradient>
<linearGradient id="paint13_linear" x1="39932.2" y1="279245" x2="39932.2" y2="169821" gradientUnits="userSpaceOnUse">
<stop stop-color="#808080" stop-opacity="0.25"/>
<stop offset="0.54" stop-color="#808080" stop-opacity="0.12"/>
<stop offset="1" stop-color="#808080" stop-opacity="0.1"/>
</linearGradient>
<linearGradient id="paint14_linear" x1="64224" y1="154633" x2="64224" y2="78050.2" gradientUnits="userSpaceOnUse">
<stop stop-color="#808080" stop-opacity="0.25"/>
<stop offset="0.54" stop-color="#808080" stop-opacity="0.12"/>
<stop offset="1" stop-color="#808080" stop-opacity="0.1"/>
</linearGradient>
<linearGradient id="paint15_linear" x1="45130.8" y1="17145.3" x2="45130.8" y2="15968.7" gradientUnits="userSpaceOnUse">
<stop stop-color="#808080" stop-opacity="0.25"/>
<stop offset="0.54" stop-color="#808080" stop-opacity="0.12"/>
<stop offset="1" stop-color="#808080" stop-opacity="0.1"/>
</linearGradient>
<linearGradient id="paint16_linear" x1="47069.5" y1="64387.2" x2="47069.5" y2="46015.3" gradientUnits="userSpaceOnUse">
<stop stop-color="#808080" stop-opacity="0.25"/>
<stop offset="0.54" stop-color="#808080" stop-opacity="0.12"/>
<stop offset="1" stop-color="#808080" stop-opacity="0.1"/>
</linearGradient>
<linearGradient id="paint17_linear" x1="36781.7" y1="22363.8" x2="36781.7" y2="14431.2" gradientUnits="userSpaceOnUse">
<stop stop-color="#808080" stop-opacity="0.25"/>
<stop offset="0.54" stop-color="#808080" stop-opacity="0.12"/>
<stop offset="1" stop-color="#808080" stop-opacity="0.1"/>
</linearGradient>
<linearGradient id="paint18_linear" x1="50088.9" y1="27113.7" x2="50088.9" y2="17109.8" gradientUnits="userSpaceOnUse">
<stop stop-color="#808080" stop-opacity="0.25"/>
<stop offset="0.54" stop-color="#808080" stop-opacity="0.12"/>
<stop offset="1" stop-color="#808080" stop-opacity="0.1"/>
</linearGradient>
<linearGradient id="paint19_linear" x1="31376.3" y1="6982.98" x2="31376.3" y2="6782.06" gradientUnits="userSpaceOnUse">
<stop stop-color="#808080" stop-opacity="0.25"/>
<stop offset="0.54" stop-color="#808080" stop-opacity="0.12"/>
<stop offset="1" stop-color="#808080" stop-opacity="0.1"/>
</linearGradient>
<clipPath id="clip0">
<rect width="1111.03" height="836.33" fill="white"/>
</clipPath>
</defs>
</svg>
