<svg width="512" height="498" viewBox="0 0 512 498" fill="none" xmlns="http://www.w3.org/2000/svg">
<g id="Group">
<path id="Vector" d="M465.929 129.002C451.407 102.735 436.334 86.8312 434.297 84.2646C388.792 32.9509 322.379 0.59964 248.4 0.59964C191.371 0.59964 138.867 19.8105 96.9656 52.0906C37.9751 97.5362 23.4528 165.229 23.4528 245.343C23.4528 382.531 114.311 474.452 251.499 474.452C347.584 474.452 431.028 442.28 472.271 356.762C472.267 356.765 472.263 356.767 472.259 356.77C506.454 285.882 505.419 200.549 465.929 129.002V129.002Z" fill="#FFC305"/>
<path id="Vector_2" d="M490.182 305.977C447.714 338.61 394.894 357.391 338.818 357.391C201.63 357.391 90.4175 246.178 90.4175 108.99C90.4175 89.4208 92.6916 70.3782 96.9766 52.1047C37.9861 97.5502 1.52588e-05 168.885 1.52588e-05 249C1.52588e-05 386.188 111.213 497.4 248.4 497.4C344.486 497.4 431.028 442.281 472.27 356.763C472.266 356.766 472.262 356.768 472.258 356.771C480.113 340.488 486.085 323.44 490.182 305.977Z" fill="#E0AE0E"/>
<g id="Group_2">
<path id="Vector_3" d="M442.501 129.277H393.426C388.758 129.277 384.972 125.491 384.972 120.823V109.778C384.972 105.11 388.758 101.324 393.426 101.324H442.501C447.169 101.324 450.955 105.11 450.955 109.778V120.823C450.955 125.491 447.169 129.277 442.501 129.277V129.277Z" fill="#FF0000"/>
<path id="Vector_4" d="M145.14 129.277H96.0653C91.3968 129.277 87.6115 125.491 87.6115 120.823V109.778C87.6115 105.11 91.3968 101.324 96.0653 101.324H145.14C149.809 101.324 153.594 105.11 153.594 109.778V120.823C153.594 125.491 149.81 129.277 145.14 129.277Z" fill="#FF0000"/>
<path id="Vector_5" d="M507.157 266.213C506.907 265.39 506.647 264.568 506.377 263.746L466.558 142.089C461.178 125.65 445.838 114.53 428.54 114.53H398.92C386.825 114.53 375.814 121.5 370.637 132.431H165.809C160.633 121.5 149.621 114.53 137.526 114.53H127.921L53.0682 297.44L134.704 368.956C134.76 368.939 134.777 368.935 134.835 368.918L159.009 283.853H159.539C158.777 281.84 158.302 279.685 158.202 277.446C157.748 267.302 167.161 258.662 176.986 258.662H421.73C421.825 258.662 421.916 258.676 422.011 258.677C422.064 258.674 422.117 258.665 422.17 258.662C432.315 258.208 440.954 267.621 440.954 277.446V373.708C489.465 364.926 522.128 315.411 507.157 266.213Z" fill="#453D49"/>
<g id="Group_3">
<path id="Vector_6" d="M133.459 373.758L135.834 365.401C110.304 348.191 92.9921 321.875 86.6872 292.68C83.0952 276.044 95.807 260.424 112.824 260.147C113.044 260.143 113.264 260.138 113.486 260.132C140.206 259.361 162.186 237.847 163.486 211.147C164.337 193.659 156.474 177.968 143.861 168.035C127.82 155.401 121.596 133.946 127.92 114.531H106.989C89.6694 114.531 74.3179 125.676 68.9534 142.143L29.339 263.747C29.0737 264.556 28.8173 265.367 28.57 266.178C12.2431 319.769 53.1263 373.758 109.149 373.758H133.459Z" fill="#2B282D"/>
<path id="Vector_7" d="M468.652 361.762L450.472 297.786C445.004 278.547 449.28 257.644 462.493 242.628C470.951 233.016 475.887 220.23 475.287 206.287C474.139 179.664 452.408 158.044 425.779 157.023C396.367 155.897 372.168 179.407 372.168 208.568C372.168 208.747 372.169 208.924 372.171 209.102C372.407 232.307 353.904 251.336 330.698 251.336H207.112L210.333 283.851H376.708L408.089 394.275C413.036 407.602 428.14 414.061 441.193 408.432C458.293 401.058 472.801 390.06 484.168 376.698C477.261 374.422 471.395 369.15 468.652 361.762V361.762Z" fill="#2B282D"/>
<path id="Vector_8" d="M138.346 355.321L138.173 355.932C133.226 369.258 118.121 375.717 105.069 370.088C55.778 348.832 27.9761 297.511 35.1141 246.018L29.339 263.746C10.3625 321.576 38.635 384.33 94.5232 408.433C107.576 414.062 122.682 407.603 127.627 394.276L138.694 355.336C138.578 355.332 138.462 355.327 138.346 355.321Z" fill="#2B282D"/>
<path id="Vector_9" d="M397.106 355.321L397.28 355.932C402.227 369.258 417.332 375.717 430.384 370.088C479.674 348.832 507.476 297.511 500.338 246.018L506.113 263.746C525.089 321.576 496.817 384.33 440.929 408.433C427.875 414.062 412.77 407.603 407.824 394.276C407.824 394.276 396.99 355.327 397.106 355.321Z" fill="#2B282D"/>
</g>
<g id="Group_4">
<path id="Vector_10" d="M177.815 229.052C166.664 229.052 156.479 233.184 148.706 240L177.815 317.386C202.208 317.386 221.981 297.611 221.981 273.219C221.981 248.827 202.208 229.052 177.815 229.052Z" fill="#126EB3"/>
<path id="Vector_11" d="M188.682 306.8C200.665 302.278 209.082 290.496 208.563 276.815C207.97 261.191 195.467 248.32 179.865 247.309C173.121 246.871 166.807 248.608 161.555 251.888C157.714 254.285 153.139 249.914 155.329 245.951C155.398 245.827 155.467 245.702 155.538 245.578C158.036 241.157 152.525 236.655 148.708 240.002C139.132 248.399 133.217 260.871 133.673 274.711C134.436 297.899 153.476 316.785 176.669 317.373C181.245 317.489 185.669 316.908 189.84 315.729C192.272 315.042 192.01 311.491 189.496 311.236C189.422 311.228 189.348 311.221 189.274 311.213C186.905 310.959 186.454 307.641 188.682 306.8V306.8Z" fill="#175584"/>
<path id="Vector_12" d="M177.815 303.99C194.809 303.99 208.586 290.213 208.586 273.219C208.586 256.224 194.809 242.448 177.815 242.448C160.82 242.448 147.044 256.224 147.044 273.219C147.044 290.213 160.82 303.99 177.815 303.99Z" fill="#2B282D"/>
<path id="Vector_13" d="M177.815 297.44C191.191 297.44 202.036 286.596 202.036 273.219C202.036 259.842 191.191 248.998 177.815 248.998C164.438 248.998 153.594 259.842 153.594 273.219C153.594 286.596 164.438 297.44 177.815 297.44Z" fill="#594D5E"/>
<path id="Vector_14" d="M177.815 288.327C186.159 288.327 192.923 281.563 192.923 273.219C192.923 264.875 186.159 258.111 177.815 258.111C169.471 258.111 162.707 264.875 162.707 273.219C162.707 281.563 169.471 288.327 177.815 288.327Z" fill="#453D49"/>
</g>
<g id="Group_5">
<path id="Vector_15" d="M354.109 229C342.958 229 332.773 233.132 325 239.948L354.109 317.334C378.502 317.334 398.275 297.559 398.275 273.167C398.275 248.775 378.501 229 354.109 229Z" fill="#126EB3"/>
<path id="Vector_16" d="M365.068 306.8C377.049 302.278 385.468 290.496 384.948 276.815C384.356 261.191 371.853 248.32 356.25 247.309C349.507 246.871 343.193 248.608 337.941 251.888C334.099 254.285 329.525 249.914 331.715 245.951C331.784 245.827 331.853 245.702 331.923 245.578C334.422 241.157 328.911 236.655 325.094 240.002C315.517 248.399 309.603 260.871 310.059 274.711C310.822 297.899 329.861 316.785 353.055 317.373C357.631 317.489 362.054 316.908 366.226 315.729C368.658 315.042 368.395 311.491 365.882 311.236C365.808 311.228 365.733 311.221 365.659 311.213C363.292 310.959 362.839 307.641 365.068 306.8V306.8Z" fill="#175584"/>
<path id="Vector_17" d="M354.201 303.99C371.196 303.99 384.972 290.213 384.972 273.219C384.972 256.224 371.196 242.448 354.201 242.448C337.207 242.448 323.43 256.224 323.43 273.219C323.43 290.213 337.207 303.99 354.201 303.99Z" fill="#2B282D"/>
<path id="Vector_18" d="M354.201 297.44C367.578 297.44 378.422 286.596 378.422 273.219C378.422 259.842 367.578 248.998 354.201 248.998C340.825 248.998 329.98 259.842 329.98 273.219C329.98 286.596 340.825 297.44 354.201 297.44Z" fill="#594D5E"/>
<path id="Vector_19" d="M354.201 288.327C362.545 288.327 369.309 281.563 369.309 273.219C369.309 264.875 362.545 258.111 354.201 258.111C345.857 258.111 339.093 264.875 339.093 273.219C339.093 281.563 345.857 288.327 354.201 288.327Z" fill="#453D49"/>
</g>
<path id="Vector_20" d="M111.957 249.231C140.445 249.231 163.54 226.137 163.54 197.648C163.54 169.16 140.445 146.065 111.957 146.065C83.468 146.065 60.3734 169.16 60.3734 197.648C60.3734 226.137 83.468 249.231 111.957 249.231Z" fill="#2B282D"/>
<path id="Vector_21" d="M423.744 249.231C452.232 249.231 475.327 226.137 475.327 197.648C475.327 169.16 452.232 146.065 423.744 146.065C395.255 146.065 372.16 169.16 372.16 197.648C372.16 226.137 395.255 249.231 423.744 249.231Z" fill="#2B282D"/>
<path id="Vector_22" d="M331.828 225.297H205.279C199.045 225.297 193.992 220.244 193.992 214.01V145.4C193.992 139.166 199.045 134.113 205.279 134.113H331.828C338.062 134.113 343.115 139.166 343.115 145.4V214.01C343.115 220.244 338.062 225.297 331.828 225.297V225.297Z" fill="#453D49"/>
<path id="Vector_23" d="M173.547 184.455C168.55 184.455 164.499 180.404 164.499 175.407V162.159C164.499 157.162 168.55 153.111 173.547 153.111C178.544 153.111 182.594 157.162 182.594 162.159V175.407C182.594 180.403 178.544 184.455 173.547 184.455Z" fill="#453D49"/>
<path id="Vector_24" d="M362.291 182.785C357.294 182.785 353.243 178.735 353.243 173.738V160.49C353.243 155.493 357.294 151.443 362.291 151.443C367.288 151.443 371.338 155.493 371.338 160.49V173.738C371.338 178.735 367.288 182.785 362.291 182.785Z" fill="#453D49"/>
<path id="Vector_25" d="M331.828 215.71H205.279C199.045 215.71 193.992 210.657 193.992 204.424V135.814C193.992 129.58 199.045 124.527 205.279 124.527H331.828C338.062 124.527 343.115 129.58 343.115 135.814V204.424C343.115 210.657 338.062 215.71 331.828 215.71Z" fill="#2B282D"/>
<path id="Vector_26" d="M216.788 147.983H320.072" stroke="#5AB4FF" stroke-width="5.75204" stroke-miterlimit="10" stroke-linecap="round"/>
<path id="Vector_27" d="M173.547 174.868C168.55 174.868 164.499 170.818 164.499 165.821V152.572C164.499 147.575 168.55 143.525 173.547 143.525C178.544 143.525 182.594 147.575 182.594 152.572V165.821C182.594 170.817 178.544 174.868 173.547 174.868Z" fill="#2B282D"/>
<path id="Vector_28" d="M362.291 173.199C357.294 173.199 353.243 169.148 353.243 164.151V150.903C353.243 145.906 357.294 141.855 362.291 141.855C367.288 141.855 371.338 145.906 371.338 150.903V164.151C371.338 169.148 367.288 173.199 362.291 173.199Z" fill="#2B282D"/>
<path id="Vector_29" d="M423.744 187.334C431.121 187.334 437.102 181.353 437.102 173.975C437.102 166.597 431.121 160.616 423.744 160.616C416.366 160.616 410.385 166.597 410.385 173.975C410.385 181.353 416.366 187.334 423.744 187.334Z" fill="#FFC305"/>
<path id="Vector_30" d="M423.744 234.681C431.121 234.681 437.102 228.7 437.102 221.322C437.102 213.945 431.121 207.964 423.744 207.964C416.366 207.964 410.385 213.945 410.385 221.322C410.385 228.7 416.366 234.681 423.744 234.681Z" fill="#BE5AB9"/>
<path id="Vector_31" d="M447.417 211.007C454.794 211.007 460.775 205.026 460.775 197.648C460.775 190.27 454.794 184.29 447.417 184.29C440.039 184.29 434.058 190.27 434.058 197.648C434.058 205.026 440.039 211.007 447.417 211.007Z" fill="#F73C9A"/>
<path id="Vector_32" d="M400.07 211.007C407.448 211.007 413.429 205.026 413.429 197.648C413.429 190.27 407.448 184.29 400.07 184.29C392.693 184.29 386.712 190.27 386.712 197.648C386.712 205.026 392.693 211.007 400.07 211.007Z" fill="#5AB4FF"/>
<path id="Vector_33" d="M111.844 187.334C119.222 187.334 125.203 181.353 125.203 173.975C125.203 166.597 119.222 160.616 111.844 160.616C104.467 160.616 98.4857 166.597 98.4857 173.975C98.4857 181.353 104.467 187.334 111.844 187.334Z" fill="#FFC305"/>
<path id="Vector_34" d="M111.844 234.681C119.222 234.681 125.203 228.7 125.203 221.322C125.203 213.945 119.222 207.964 111.844 207.964C104.467 207.964 98.4857 213.945 98.4857 221.322C98.4857 228.7 104.467 234.681 111.844 234.681Z" fill="#BE5AB9"/>
<path id="Vector_35" d="M135.518 211.007C142.895 211.007 148.876 205.026 148.876 197.648C148.876 190.27 142.895 184.29 135.518 184.29C128.14 184.29 122.159 190.27 122.159 197.648C122.159 205.026 128.14 211.007 135.518 211.007Z" fill="#F73C9A"/>
<path id="Vector_36" d="M88.1703 211.007C95.5481 211.007 101.529 205.026 101.529 197.648C101.529 190.27 95.5481 184.29 88.1703 184.29C80.7925 184.29 74.8116 190.27 74.8116 197.648C74.8116 205.026 80.7925 211.007 88.1703 211.007Z" fill="#5AB4FF"/>
</g>
</g>
</svg>
