<svg width="507" height="500" viewBox="0 0 507 500" fill="none" xmlns="http://www.w3.org/2000/svg">
<g id="Email_SVG 1">
<g id="&#208;&#161;&#208;&#187;&#208;&#190;&#208;&#185; 2">
<g id="&#208;&#161;&#208;&#187;&#208;&#190;&#208;&#185; 1">
<g id="Mobile">
<path id="Vector" opacity="0.4" d="M178.762 483.44L84.3939 430.277C76.4049 425.76 77.4047 417.91 86.6341 412.707L314.585 284.303C323.842 279.099 337.774 278.539 345.763 283.038L440.131 336.201C448.12 340.718 447.121 348.577 437.891 353.771L209.941 482.185C200.711 487.379 186.751 487.948 178.762 483.44Z" fill="#8B8B8D"/>
<path id="Vector_2" d="M180.299 454.474L85.9398 401.311C77.9416 396.794 78.9506 388.935 88.1801 383.74L316.121 255.309C325.379 250.115 339.264 249.546 347.309 254.054L441.668 307.216C449.657 311.733 448.657 319.584 439.428 324.787L211.487 453.209C202.257 458.412 188.297 458.973 180.299 454.474Z" fill="#B1B4C4"/>
<path id="Vector_3" d="M80.5428 393.56V385.086L90.7351 388.835L80.5428 393.56Z" fill="#B1B4C4"/>
<path id="Vector_4" d="M447.065 314.552V306.403L438.965 311.498L447.065 314.552Z" fill="#B1B4C4"/>
<path id="Vector_5" d="M180.299 447.292L85.9398 394.129C77.9416 389.612 78.9506 381.762 88.1801 376.559L316.121 248.137C325.379 242.933 339.264 242.373 347.309 246.872L441.668 300.035C449.657 304.552 448.657 312.411 439.428 317.605L211.487 446.036C202.257 451.231 188.297 451.8 180.299 447.292Z" fill="#616E84"/>
<path id="Vector_6" d="M97.3257 405.025C97.8083 404.753 97.8079 403.871 97.3248 403.054C96.8416 402.238 96.0587 401.796 95.5761 402.068C95.0935 402.34 95.0939 403.222 95.5771 404.039C96.0602 404.856 96.8431 405.297 97.3257 405.025Z" fill="#757B89"/>
<path id="Vector_7" d="M101.868 407.587C102.351 407.315 102.351 406.433 101.867 405.616C101.384 404.8 100.601 404.358 100.119 404.63C99.6362 404.902 99.6366 405.784 100.12 406.601C100.603 407.417 101.386 407.859 101.868 407.587Z" fill="#757B89"/>
<path id="Vector_8" d="M106.411 410.14C106.894 409.868 106.893 408.986 106.41 408.169C105.927 407.352 105.144 406.911 104.661 407.183C104.179 407.455 104.179 408.337 104.662 409.154C105.146 409.97 105.928 410.412 106.411 410.14Z" fill="#757B89"/>
<path id="Vector_9" d="M110.95 412.705C111.433 412.433 111.433 411.551 110.949 410.734C110.466 409.917 109.683 409.476 109.201 409.748C108.718 410.02 108.719 410.902 109.202 411.719C109.685 412.535 110.468 412.977 110.95 412.705Z" fill="#757B89"/>
<path id="Vector_10" d="M149.956 434.672C150.439 434.4 150.439 433.518 149.955 432.701C149.472 431.884 148.689 431.443 148.207 431.715C147.724 431.987 147.725 432.869 148.208 433.686C148.691 434.502 149.474 434.944 149.956 434.672Z" fill="#757B89"/>
<path id="Vector_11" d="M154.491 437.238C154.974 436.966 154.973 436.084 154.49 435.267C154.007 434.451 153.224 434.009 152.742 434.281C152.259 434.553 152.259 435.435 152.742 436.252C153.226 437.069 154.009 437.51 154.491 437.238Z" fill="#757B89"/>
<path id="Vector_12" d="M159.034 439.791C159.516 439.519 159.516 438.637 159.033 437.82C158.55 437.003 157.767 436.562 157.284 436.834C156.802 437.106 156.802 437.988 157.285 438.805C157.768 439.621 158.551 440.063 159.034 439.791Z" fill="#757B89"/>
<path id="Vector_13" d="M163.581 442.352C164.064 442.08 164.063 441.197 163.58 440.381C163.097 439.564 162.314 439.122 161.832 439.394C161.349 439.666 161.349 440.549 161.833 441.365C162.316 442.182 163.099 442.623 163.581 442.352Z" fill="#757B89"/>
<path id="Vector_14" d="M135.864 427.581L123.395 420.543C122.957 420.241 122.599 419.842 122.349 419.379C122.1 418.916 121.966 418.402 121.96 417.879C121.96 416.849 122.599 416.379 123.395 416.822L135.864 423.859C136.302 424.161 136.66 424.56 136.909 425.023C137.159 425.486 137.292 426.001 137.299 426.524C137.253 427.554 136.614 428.023 135.864 427.581Z" fill="#757B89"/>
<path id="Vector_15" d="M418.506 334.742L406.898 341.282C406.167 341.689 405.565 341.282 405.565 340.298C405.573 339.811 405.698 339.333 405.93 338.901C406.161 338.47 406.493 338.098 406.898 337.813L418.506 331.282C419.238 330.867 419.83 331.282 419.83 332.258C419.823 332.744 419.7 333.222 419.47 333.653C419.24 334.084 418.91 334.457 418.506 334.742Z" fill="#757B89"/>
<path id="Vector_16" d="M400.733 344.751L389.124 351.292C388.393 351.707 387.791 351.292 387.791 350.307C387.801 349.822 387.927 349.345 388.158 348.916C388.389 348.486 388.72 348.115 389.124 347.832L400.733 341.291C401.464 340.876 402.056 341.291 402.056 342.276C402.05 342.761 401.927 343.238 401.697 343.668C401.467 344.098 401.137 344.469 400.733 344.751Z" fill="#757B89"/>
<path id="Vector_17" d="M180.299 445.991L85.9398 392.828C77.9416 388.311 78.9506 380.461 88.1801 375.258L316.121 246.836C325.379 241.632 339.264 241.063 347.309 245.571L441.668 298.734C449.657 303.251 448.657 311.101 439.428 316.304L211.487 444.726C202.257 449.93 188.297 450.49 180.299 445.991Z" fill="#20232D"/>
<path id="Vector_18" d="M431.541 300.857L394.697 280.079L394.614 280.134C390.253 282.582 383.199 282.582 378.876 280.134C374.553 277.686 374.525 273.702 378.876 271.254L378.969 271.199L342.125 250.422C336.571 247.269 327.461 247.269 321.861 250.422L99.835 375.538C94.2806 378.691 94.2806 383.804 99.835 386.956L189.269 437.346C194.87 440.499 203.942 440.499 209.533 437.346L431.541 312.266C437.132 309.114 437.132 304.01 431.541 300.857Z" fill="white"/>
<path id="Vector_19" opacity="0.5" d="M431.541 312.266L209.533 437.346C204.479 440.192 196.573 440.472 190.963 438.159C190.385 437.923 189.822 437.651 189.278 437.346L99.835 386.993C98.5945 386.329 97.5221 385.403 96.6968 384.282C94.5861 381.365 95.6322 377.896 99.835 375.529L321.833 250.458C327.434 247.314 336.497 247.314 342.097 250.458L378.941 271.235H378.848C374.498 273.684 374.498 277.658 378.848 280.116C383.199 282.573 390.263 282.564 394.586 280.116L394.678 280.061L431.522 300.839C437.132 304.01 437.132 309.114 431.541 312.266Z" fill="url(#paint0_linear)"/>
<path id="Vector_20" d="M384.31 279.456C386.647 279.456 388.541 278.388 388.541 277.071C388.541 275.754 386.647 274.686 384.31 274.686C381.974 274.686 380.08 275.754 380.08 277.071C380.08 278.388 381.974 279.456 384.31 279.456Z" fill="#2B303F"/>
<path id="Vector_21" opacity="0.1" d="M383.033 277.776C382.884 277.723 382.756 277.627 382.666 277.501C382.576 277.375 382.527 277.225 382.527 277.071C382.527 276.917 382.576 276.767 382.666 276.641C382.756 276.515 382.884 276.419 383.033 276.367C383.422 276.175 383.851 276.074 384.287 276.074C384.723 276.074 385.153 276.175 385.541 276.367C385.694 276.415 385.827 276.509 385.921 276.636C386.016 276.762 386.066 276.915 386.066 277.071C386.066 277.228 386.016 277.38 385.921 277.507C385.827 277.633 385.694 277.728 385.541 277.776C385.153 277.968 384.723 278.068 384.287 278.068C383.851 278.068 383.422 277.968 383.033 277.776Z" fill="white"/>
</g>
<path id="Vector_22" d="M399.474 294.262L397.872 293.359L400.547 291.85L402.149 292.754L399.474 294.262Z" fill="#E9EAF2"/>
<path id="Vector_23" d="M401.612 295.464L400.01 294.56L403.75 292.456L405.352 293.359L401.612 295.464Z" fill="#E9EAF2"/>
<path id="Vector_24" d="M403.75 296.665L402.149 295.762L407.49 292.754L409.092 293.657L403.75 296.665Z" fill="#E9EAF2"/>
<path id="Vector_25" d="M405.889 297.876L404.287 296.972L411.767 292.754L413.369 293.657L405.889 297.876Z" fill="#E9EAF2"/>
<path id="Vector_26" d="M412.832 301.787L410.342 300.378L415.331 297.569L417.821 298.978L412.832 301.787Z" fill="#E9EAF2"/>
<path id="Vector_27" d="M416.164 303.657L413.665 302.257L418.655 299.448L421.145 300.848L416.164 303.657Z" fill="#E9EAF2"/>
<path id="Vector_28" d="M419.488 305.527L416.988 304.127L421.978 301.318L424.468 302.718L419.488 305.527Z" fill="#E9EAF2"/>
<g id="notification">
<path class="message" id="Vector_29" opacity="0.6" d="M207.284 426.614L140.169 388.799C138.577 387.896 138.78 386.351 140.604 385.321L151.194 379.359C152.133 378.848 153.181 378.558 154.255 378.514C155.329 378.471 156.399 378.673 157.378 379.106L224.493 416.921C226.076 417.824 225.882 419.378 224.049 420.408L213.468 426.37C212.527 426.877 211.479 427.164 210.405 427.206C209.332 427.248 208.263 427.046 207.284 426.614Z" fill="#E9EAF2"/>
<path class="message" id="Vector_30" opacity="0.6" d="M129.264 382.656L117.794 376.152C116.211 375.249 116.405 373.704 118.238 372.674L128.819 366.703C129.759 366.193 130.808 365.905 131.882 365.863C132.956 365.821 134.025 366.025 135.003 366.459L146.473 372.918C148.056 373.821 147.862 375.375 146.029 376.405L135.448 382.367C134.512 382.884 133.465 383.179 132.391 383.229C131.317 383.279 130.246 383.083 129.264 382.656Z" fill="#E9EAF2"/>
<path class="message" id="Vector_31" opacity="0.6" d="M230.52 413.524L163.395 375.71C161.812 374.806 162.016 373.252 163.84 372.223L174.43 366.26C175.367 365.749 176.414 365.46 177.486 365.416C178.559 365.372 179.627 365.574 180.604 366.007L247.729 403.822C249.312 404.726 249.117 406.279 247.284 407.309L236.694 413.271C235.756 413.78 234.71 414.068 233.638 414.112C232.565 414.156 231.498 413.954 230.52 413.524Z" fill="#E9EAF2"/>
<path class="message" id="Vector_32" opacity="0.6" d="M152.527 369.567L141.048 363.099C139.465 362.195 139.669 360.65 141.493 359.621L152.083 353.649C153.022 353.139 154.071 352.852 155.145 352.809C156.219 352.767 157.288 352.971 158.267 353.405L169.709 359.892C171.292 360.795 171.097 362.349 169.264 363.379L158.674 369.341C157.738 369.843 156.695 370.126 155.628 370.165C154.561 370.204 153.499 369.999 152.527 369.567Z" fill="#E9EAF2"/>
<path class="message" id="Vector_33" d="M253.755 400.435L186.631 362.602C185.048 361.698 185.242 360.145 187.075 359.115L197.656 353.152C198.595 352.642 199.644 352.353 200.717 352.309C201.791 352.265 202.861 352.467 203.84 352.9L270.964 390.714C272.547 391.618 272.344 393.172 270.52 394.201L259.911 400.182C258.976 400.687 257.932 400.973 256.864 401.017C255.795 401.061 254.731 400.862 253.755 400.435Z" fill="#E9EAF2"/>
<path class="message" id="Vector_34" d="M175.735 356.477L164.256 350.009C162.673 349.105 162.877 347.561 164.7 346.531L175.291 340.56C176.228 340.05 177.276 339.762 178.348 339.72C179.421 339.677 180.489 339.881 181.465 340.316L192.944 346.775C194.527 347.678 194.324 349.232 192.5 350.262L181.91 356.224C180.973 356.735 179.926 357.025 178.853 357.069C177.781 357.112 176.713 356.91 175.735 356.477Z" fill="#E9EAF2"/>
<path class="message" id="Vector_35" opacity="0.6" d="M276.982 387.345L209.867 349.53C208.284 348.627 208.478 347.073 210.311 346.043L220.892 340.081C221.831 339.57 222.879 339.281 223.953 339.237C225.027 339.193 226.097 339.396 227.076 339.828L294.163 377.643C295.746 378.546 295.552 380.1 293.719 381.13L283.138 387.092C282.202 387.596 281.158 387.882 280.09 387.925C279.022 387.969 277.958 387.771 276.982 387.345Z" fill="#E9EAF2"/>
<path class="message" id="Vector_36" opacity="0.6" d="M198.962 343.387L187.492 336.919C185.909 336.016 186.103 334.471 187.936 333.441L198.517 327.47C199.457 326.96 200.505 326.672 201.579 326.63C202.653 326.587 203.723 326.792 204.701 327.226L216.171 333.694C217.763 334.597 217.559 336.151 215.726 337.181L205.145 343.143C204.206 343.653 203.157 343.94 202.083 343.982C201.009 344.025 199.94 343.821 198.962 343.387Z" fill="#E9EAF2"/>
<path class="message" id="Vector_37" d="M300.217 374.255L233.065 336.404C231.482 335.501 231.686 333.947 233.51 332.917L244.1 326.955C245.038 326.444 246.087 326.154 247.161 326.11C248.235 326.066 249.305 326.269 250.284 326.702L317.399 364.517C318.982 365.42 318.787 366.974 316.954 368.004L306.373 373.966C305.44 374.476 304.399 374.768 303.33 374.818C302.262 374.868 301.196 374.675 300.217 374.255Z" fill="#E9EAF2"/>
<path class="message" id="Vector_38" d="M222.197 330.297L210.728 323.829C209.145 322.926 209.339 321.381 211.172 320.351L221.753 314.38C222.692 313.87 223.741 313.582 224.815 313.54C225.889 313.498 226.958 313.702 227.937 314.136L239.406 320.595C240.989 321.499 240.795 323.052 238.962 324.082L228.381 330.081C227.439 330.586 226.389 330.868 225.316 330.906C224.242 330.944 223.174 330.735 222.197 330.297Z" fill="#E9EAF2"/>
<path class="message" id="Vector_39" d="M323.453 361.165L256.329 323.351C254.746 322.447 254.949 320.893 256.773 319.864L267.363 313.901C268.3 313.39 269.347 313.101 270.42 313.057C271.492 313.013 272.56 313.216 273.538 313.648L340.662 351.463C342.245 352.367 342.042 353.92 340.218 354.95L329.628 360.912C328.69 361.421 327.643 361.709 326.571 361.753C325.499 361.797 324.431 361.595 323.453 361.165Z" fill="#E9EAF2"/>
<path class="message" id="Vector_40" d="M245.433 317.208L233.991 310.74C232.408 309.836 232.612 308.291 234.435 307.262L245.026 301.29C245.963 300.781 247.011 300.493 248.083 300.45C249.156 300.408 250.223 300.612 251.2 301.047L262.688 307.497C264.271 308.4 264.077 309.954 262.244 310.984L251.58 316.955C250.646 317.462 249.604 317.749 248.537 317.792C247.47 317.836 246.407 317.636 245.433 317.208Z" fill="#E9EAF2"/>
<path class="message" id="Vector_41" opacity="0.6" d="M346.689 348.076L279.564 310.261C277.981 309.357 278.176 307.804 280.009 306.774L290.59 300.812C291.529 300.301 292.577 300.012 293.651 299.968C294.725 299.924 295.794 300.126 296.774 300.559L363.898 338.373C365.481 339.277 365.277 340.831 363.454 341.86L352.863 347.823C351.925 348.331 350.879 348.619 349.807 348.663C348.735 348.707 347.667 348.506 346.689 348.076Z" fill="#E9EAF2"/>
<path class="message" id="Vector_42" opacity="0.6" d="M268.669 304.118L257.19 297.65C255.607 296.746 255.801 295.202 257.634 294.172L268.224 288.21C269.16 287.696 270.208 287.406 271.281 287.362C272.353 287.318 273.422 287.522 274.399 287.957L285.878 294.416C287.461 295.319 287.257 296.873 285.434 297.903L274.843 303.883C273.905 304.392 272.857 304.678 271.785 304.718C270.712 304.759 269.645 304.554 268.669 304.118Z" fill="#E9EAF2"/>
<path class="message" id="Vector_43" d="M369.915 334.986L302.8 297.171C301.217 296.268 301.412 294.714 303.244 293.684L313.825 287.722C314.764 287.211 315.813 286.922 316.887 286.878C317.961 286.834 319.03 287.037 320.009 287.469L387.124 325.284C388.707 326.187 388.513 327.741 386.68 328.771L376.099 334.733C375.159 335.242 374.111 335.529 373.038 335.573C371.964 335.617 370.895 335.416 369.915 334.986Z" fill="#E9EAF2"/>
<path class="message" id="Vector_44" d="M291.895 291.028L280.425 284.56C278.842 283.657 279.037 282.112 280.87 281.082L291.451 275.12C292.389 274.607 293.437 274.316 294.512 274.272C295.586 274.228 296.656 274.432 297.635 274.867L309.104 281.299C310.687 282.202 310.493 283.756 308.66 284.786L298.079 290.748C297.142 291.263 296.095 291.557 295.021 291.605C293.947 291.654 292.877 291.456 291.895 291.028Z" fill="#E9EAF2"/>
<path class="message" id="Vector_45" d="M393.151 321.896L326.027 284.081C324.444 283.178 324.647 281.624 326.471 280.594L337.061 274.632C337.998 274.121 339.045 273.832 340.118 273.788C341.19 273.744 342.258 273.946 343.236 274.379L410.36 312.194C411.943 313.097 411.749 314.651 409.916 315.681L399.335 321.643C398.395 322.152 397.347 322.44 396.273 322.484C395.2 322.527 394.131 322.326 393.151 321.896Z" fill="#E9EAF2"/>
<path class="message" id="Vector_46" d="M315.131 277.938L303.661 271.47C302.069 270.567 302.272 269.022 304.105 267.992L314.686 262.03C315.624 261.517 316.673 261.226 317.747 261.182C318.822 261.138 319.892 261.342 320.87 261.777L332.34 268.236C333.923 269.14 333.729 270.693 331.896 271.723L321.315 277.686C320.376 278.196 319.327 278.485 318.254 278.529C317.18 278.573 316.11 278.371 315.131 277.938Z" fill="#E9EAF2"/>
</g>
<g id="mail1">
<path id="Vector_47" d="M24.0644 262.364L26.4342 263.638L26.5823 259.537L24.0644 262.364Z" fill="#206F9B"/>
<path id="Vector_48" d="M87.7728 179.11L90.3278 180.475L86.7267 184.684L87.7728 179.11Z" fill="#206F9B"/>
<path id="Vector_49" d="M88.3467 180.176V224.803C88.3457 225.111 88.2893 225.417 88.1801 225.706C88.1205 225.89 88.043 226.069 87.9486 226.239C87.6718 226.781 87.2495 227.24 86.7267 227.567L25.166 262.256C24.993 262.386 24.7841 262.462 24.5663 262.475C24.3486 262.488 24.1318 262.437 23.944 262.328C23.8372 262.25 23.7514 262.148 23.6941 262.03C23.5904 261.816 23.5397 261.581 23.546 261.344V216.717C23.547 216.411 23.5969 216.106 23.6941 215.814C23.7607 215.622 23.8412 215.435 23.9348 215.254C24.2179 214.713 24.6427 214.255 25.166 213.926L86.7082 179.219C86.884 179.09 87.0955 179.016 87.3152 179.006C87.5349 178.996 87.7524 179.052 87.9394 179.165C88.0414 179.244 88.1263 179.342 88.1893 179.454C88.3009 179.679 88.3549 179.927 88.3467 180.176Z" fill="#206F9B"/>
<path id="Vector_50" d="M90.7351 181.459V226.085C90.7294 226.393 90.6731 226.698 90.5685 226.989C90.5048 227.172 90.4275 227.35 90.337 227.522C90.0602 228.064 89.6379 228.523 89.1151 228.85L27.5544 263.521C27.3795 263.648 27.1696 263.721 26.9519 263.73C26.7341 263.74 26.5184 263.686 26.3324 263.575C26.2279 263.498 26.1424 263.399 26.0825 263.286C25.9721 263.073 25.918 262.837 25.9251 262.599V217.973C25.9246 217.666 25.9778 217.36 26.0825 217.07C26.3468 216.307 26.8649 215.652 27.5544 215.209L89.0966 180.538C89.271 180.411 89.4802 180.337 89.6977 180.325C89.9152 180.314 90.1312 180.366 90.3185 180.475C90.4254 180.553 90.5111 180.655 90.5685 180.773C90.682 180.984 90.7393 181.22 90.7351 181.459Z" fill="#369DFD"/>
<path id="Vector_51" opacity="0.12" d="M26.1935 263.738L58.3255 221.849L90.4018 227.377V231.804L25.9251 268.128L26.1935 263.738Z" fill="black"/>
<path id="Vector_52" opacity="0.05" d="M58.3254 221.849L26.2583 216.681L23.3053 215.76L22 266.655L26.3324 263.575L58.3254 221.849Z" fill="black"/>
<path id="Vector_53" opacity="0.05" d="M58.3254 221.849L90.4018 180.538L93.3549 176.301L94.6601 225.715L90.4018 227.377L58.3254 221.849Z" fill="black"/>
</g>
<g id="mail3">
<path id="Vector_54" d="M483.613 69.2163V121.467C483.605 121.824 483.539 122.178 483.418 122.515C483.341 122.727 483.251 122.935 483.15 123.138C482.825 123.773 482.329 124.311 481.715 124.692L409.629 165.343C409.423 165.491 409.176 165.575 408.921 165.587C408.666 165.598 408.413 165.535 408.194 165.406C408.07 165.316 407.968 165.198 407.898 165.063C407.774 164.813 407.714 164.537 407.722 164.259V111.963C407.726 111.619 407.789 111.277 407.907 110.952C407.982 110.728 408.075 110.511 408.185 110.301C408.51 109.661 409.01 109.121 409.629 108.738L481.696 68.1052C481.901 67.9541 482.147 67.8664 482.403 67.8535C482.658 67.8406 482.912 67.9031 483.131 68.0329C483.258 68.1212 483.36 68.2392 483.428 68.3762C483.558 68.6376 483.621 68.9258 483.613 69.2163Z" fill="#206F9B"/>
<path id="Vector_55" d="M408.333 165.452L411.11 166.942L411.286 162.136L408.333 165.452Z" fill="#206F9B"/>
<path id="Vector_56" d="M482.937 67.9516L485.936 69.5596L481.715 74.4829L482.937 67.9516Z" fill="#206F9B"/>
<path id="Vector_57" d="M486.408 70.7159V122.966C486.401 123.324 486.335 123.677 486.214 124.014C486.136 124.227 486.047 124.435 485.946 124.638C485.615 125.27 485.121 125.806 484.511 126.191L412.424 166.843C412.219 166.991 411.973 167.077 411.717 167.088C411.461 167.099 411.208 167.036 410.99 166.906C410.863 166.818 410.761 166.7 410.693 166.563C410.57 166.312 410.509 166.037 410.517 165.759V113.463C410.522 113.118 410.585 112.776 410.703 112.451C410.774 112.226 410.867 112.009 410.98 111.801C411.306 111.161 411.806 110.62 412.424 110.238L484.492 69.6319C484.698 69.4812 484.946 69.3938 485.203 69.3809C485.46 69.368 485.715 69.4303 485.936 69.5596C486.061 69.6505 486.162 69.7679 486.233 69.9029C486.355 70.1569 486.415 70.4352 486.408 70.7159Z" fill="#369DFD"/>
<path id="Vector_58" opacity="0.12" d="M410.814 167.051L448.463 117.998L486.02 124.475V129.66L410.517 172.2L410.814 167.051Z" fill="black"/>
<path id="Vector_59" opacity="0.05" d="M448.463 117.998L410.906 111.954L407.453 110.87L405.917 170.474L410.99 166.87L448.463 117.998Z" fill="black"/>
<path id="Vector_60" opacity="0.05" d="M448.463 117.998L486.02 69.6319L489.473 64.6634L491 122.533L486.02 124.475L448.463 117.998Z" fill="black"/>
</g>
<g id="main_mail">
<path id="Vector_61" d="M326.138 53.4526C326.031 53.1951 325.851 52.9727 325.619 52.8112C325.155 52.5751 324.655 52.4135 324.138 52.3324L245.961 30.4078L167.783 140.428C167.236 141.021 166.77 141.68 166.395 142.389C166.156 142.833 165.954 143.295 165.793 143.771C165.553 144.467 165.424 145.195 165.413 145.93V256.908C165.4 257.5 165.527 258.088 165.784 258.625C165.934 258.909 166.149 259.156 166.413 259.347C166.875 259.624 167.411 259.76 167.953 259.735C168.494 259.711 169.016 259.529 169.449 259.212L322.481 172.995C324.177 171.885 325.45 170.259 326.101 168.369C326.362 167.653 326.5 166.899 326.508 166.138V55.16C326.522 54.5705 326.395 53.9859 326.138 53.4526Z" fill="#206F9B"/>
<path id="Vector_62" d="M325.406 52.6848L330.211 55.4671L323.499 60.273L325.406 52.6848Z" fill="#285DE8"/>
<path id="Vector_63" d="M171.329 262.193L166.413 259.302L173.995 253.972L171.329 262.193Z" fill="#206F9B"/>
<path id="Vector_64" d="M245.961 30.4078L250.654 33.1631L330.211 55.4581L326.258 53.1726C324.731 52.5234 323.152 51.9976 321.537 51.6007L245.961 30.4078Z" fill="#363DD6"/>
<path id="Vector_65" d="M331.192 57.9152V168.848C331.18 169.606 331.042 170.356 330.785 171.071C330.625 171.524 330.43 171.965 330.202 172.389C329.515 173.739 328.465 174.882 327.165 175.696L174.152 261.913C173.718 262.233 173.196 262.418 172.652 262.444C172.109 262.47 171.57 262.335 171.107 262.057C170.845 261.863 170.633 261.612 170.486 261.326C170.226 260.793 170.099 260.208 170.116 259.618V148.676C170.127 147.942 170.255 147.213 170.496 146.517C170.659 146.042 170.86 145.58 171.097 145.135C171.789 143.778 172.849 142.631 174.161 141.82L327.137 55.6207L324.527 57.3732C325.749 56.6957 329.47 54.9251 330.211 55.4671C330.472 55.6617 330.684 55.912 330.831 56.1988C331.09 56.7347 331.214 57.3232 331.192 57.9152Z" fill="#369DFD"/>
<path id="Vector_66" opacity="0.12" d="M171.107 262.057L250.654 158.306L330.396 172.055V183.058L170.107 273.358L171.107 262.057Z" fill="black"/>
<path id="Vector_67" opacity="0.05" d="M250.654 158.306L170.921 145.469L163.599 143.175L160.34 269.7L171.107 262.057L250.654 158.306Z" fill="black"/>
<path id="Vector_68" opacity="0.05" d="M250.487 158.161L330.22 55.4852L337.543 44.9429L340.801 167.791L330.22 171.911L250.487 158.161Z" fill="black"/>
<path id="Vector_69" d="M171.088 145.135L250.654 33.1631L330.211 55.4671L250.654 158.306L171.088 145.135Z" fill="#369DFD"/>
<path id="Vector_70" opacity="0.3" d="M330.211 55.4671L312.205 78.7468L250.654 158.306L189.112 148.116L171.088 145.135L189.112 119.769L233.454 57.3642L250.654 33.1631L267.854 37.987L312.205 50.4264L330.211 55.4671Z" fill="black"/>
<g id="paper">
<path id="Vector_71" d="M312.205 13V78.7468L250.654 158.306L189.112 148.116V82.3512L312.205 13Z" fill="#FAFBFF"/>
<path id="Vector_72" d="M230.047 111.241L199.674 128.35V94.1311L230.047 77.0123V111.241Z" fill="#E9EAF2"/>
<path id="Vector_73" d="M265.845 91.0687L235.472 108.187V73.959L265.845 56.8402V91.0687Z" fill="#E9EAF2"/>
<path id="Vector_74" d="M301.643 70.9056L271.261 88.0243V53.7959L301.643 36.6772V70.9056Z" fill="#E9EAF2"/>
<path id="Vector_75" d="M301.643 85.1155L199.674 142.56V136.607L301.643 79.1533V85.1155Z" fill="#E9EAF2"/>
<path id="Vector_76" d="M286.452 100.545V106.507L207.673 150.889L199.665 150.094V149.444L286.452 100.545Z" fill="#E9EAF2"/>
<path id="Vector_77" d="M271.261 121.024V126.986L224.817 153.148L215.227 152.597L271.261 121.024Z" fill="#E9EAF2"/>
<path id="Vector_78" d="M263.272 138.36V142L260.087 146.111L241.175 156.77L232.945 155.451L263.272 138.36Z" fill="#E9EAF2"/>
</g>
</g>
</g>
</g>
</g>
<defs>
<linearGradient id="paint0_linear" x1="265.688" y1="439.713" x2="265.688" y2="248.1" gradientUnits="userSpaceOnUse">
<stop offset="0.21" stop-color="white" stop-opacity="0"/>
<stop offset="1" stop-color="white" stop-opacity="0.2"/>
</linearGradient>
</defs>
</svg>
