<svg width="108" height="87" viewBox="0 0 108 87" fill="none" xmlns="http://www.w3.org/2000/svg">
<g id="Group 1">
<g id="Vector 1" filter="url(#filter0_d)">
<path d="M14.9632 16.6013C25.6211 -2.346 45.2709 8.31178 53.6347 16.2839C53.8571 16.4959 54.0334 16.7416 54.1708 17.0165C54.3631 17.4011 54.4632 17.8252 54.4632 18.2552V19V19.5941C54.4632 19.861 54.4011 20.1243 54.2817 20.363C54.0778 20.7709 53.7228 21.0919 53.272 21.1604C49.8737 21.6774 42.6521 19.5667 38.4632 19.1013C33.827 18.5862 26.9632 23.6013 25.9632 27.1013C25.1275 30.0263 25.6887 52.8566 25.8956 60.2787C25.9358 61.7213 26.7539 63.0155 28.0323 63.6851L33.2064 66.3954C35.0478 67.3599 37.3211 66.7533 38.4371 64.9995L39.6989 63.0168C39.8745 62.7408 40.0155 62.4444 40.119 62.1342L40.3245 61.5176C40.9718 59.5756 40.019 57.4659 38.4337 56.1709C36.9822 54.9852 35.733 53.4825 35.9632 52.1013C36.282 50.1888 42.7603 50.6894 47.656 51.4776C49.4964 51.7739 50.6482 53.5716 50.2576 55.3943C49.8338 57.3718 48.1418 59.6093 47.6762 61.5774C47.1182 63.9359 45.7287 68.0489 40.9632 74.6013C31.3632 87.8013 16.9632 77.1013 14.9632 70.6013C10.4632 60.6013 4.16324 35.8013 14.9632 16.6013Z" fill="#FFCC00"/>
<path d="M14.9632 16.6013C25.6211 -2.346 45.2709 8.31178 53.6347 16.2839C53.8571 16.4959 54.0334 16.7416 54.1708 17.0165C54.3631 17.4011 54.4632 17.8252 54.4632 18.2552V19V19.5941C54.4632 19.861 54.4011 20.1243 54.2817 20.363C54.0778 20.7709 53.7228 21.0919 53.272 21.1604C49.8737 21.6774 42.6521 19.5667 38.4632 19.1013C33.827 18.5862 26.9632 23.6013 25.9632 27.1013C25.1275 30.0263 25.6887 52.8566 25.8956 60.2787C25.9358 61.7213 26.7539 63.0155 28.0323 63.6851L33.2064 66.3954C35.0478 67.3599 37.3211 66.7533 38.4371 64.9995L39.6989 63.0168C39.8745 62.7408 40.0155 62.4444 40.119 62.1342L40.3245 61.5176C40.9718 59.5756 40.019 57.4659 38.4337 56.1709C36.9822 54.9852 35.733 53.4825 35.9632 52.1013C36.282 50.1888 42.7603 50.6894 47.656 51.4776C49.4964 51.7739 50.6482 53.5716 50.2576 55.3943C49.8338 57.3718 48.1418 59.6093 47.6762 61.5774C47.1182 63.9359 45.7287 68.0489 40.9632 74.6013C31.3632 87.8013 16.9632 77.1013 14.9632 70.6013C10.4632 60.6013 4.16324 35.8013 14.9632 16.6013Z" stroke="#FFCC00" stroke-width="3"/>
</g>
<g id="Vector 2" filter="url(#filter1_d)">
<path d="M93.5 16.6013C82.8421 -2.346 63.1924 8.31178 54.8286 16.2839C54.6061 16.4959 54.4299 16.7416 54.2924 17.0165C54.1001 17.4011 54 17.8252 54 18.2552V19V19.5941C54 19.861 54.0621 20.1243 54.1815 20.363C54.3854 20.7709 54.7404 21.0919 55.1912 21.1604C58.5896 21.6774 65.8111 19.5667 70 19.1013C74.6362 18.5862 81.5 23.6013 82.5 27.1013C83.3357 30.0263 82.7746 52.8566 82.5677 60.2787C82.5274 61.7213 81.7093 63.0155 80.4309 63.6851L75.2568 66.3954C73.4154 67.3599 71.1421 66.7533 70.0261 64.9995L68.7644 63.0168C68.5888 62.7408 68.4477 62.4444 68.3443 62.1342L68.1388 61.5176C67.4914 59.5756 68.4442 57.4659 70.0295 56.1709C71.481 54.9852 72.7302 53.4825 72.5 52.1013C72.1813 50.1888 65.703 50.6894 60.8072 51.4776C58.9669 51.7739 57.8151 53.5716 58.2056 55.3943C58.6294 57.3718 60.3214 59.6093 60.787 61.5774C61.345 63.9359 62.7346 68.0489 67.5 74.6013C77.1 87.8013 91.5 77.1013 93.5 70.6013C98 60.6013 104.3 35.8013 93.5 16.6013Z" fill="#FFCC00"/>
<path d="M93.5 16.6013C82.8421 -2.346 63.1924 8.31178 54.8286 16.2839C54.6061 16.4959 54.4299 16.7416 54.2924 17.0165C54.1001 17.4011 54 17.8252 54 18.2552V19V19.5941C54 19.861 54.0621 20.1243 54.1815 20.363C54.3854 20.7709 54.7404 21.0919 55.1912 21.1604C58.5896 21.6774 65.8111 19.5667 70 19.1013C74.6362 18.5862 81.5 23.6013 82.5 27.1013C83.3357 30.0263 82.7746 52.8566 82.5677 60.2787C82.5274 61.7213 81.7093 63.0155 80.4309 63.6851L75.2568 66.3954C73.4154 67.3599 71.1421 66.7533 70.0261 64.9995L68.7644 63.0168C68.5888 62.7408 68.4477 62.4444 68.3443 62.1342L68.1388 61.5176C67.4914 59.5756 68.4442 57.4659 70.0295 56.1709C71.481 54.9852 72.7302 53.4825 72.5 52.1013C72.1813 50.1888 65.703 50.6894 60.8072 51.4776C58.9669 51.7739 57.8151 53.5716 58.2056 55.3943C58.6294 57.3718 60.3214 59.6093 60.787 61.5774C61.345 63.9359 62.7346 68.0489 67.5 74.6013C77.1 87.8013 91.5 77.1013 93.5 70.6013C98 60.6013 104.3 35.8013 93.5 16.6013Z" stroke="#FFCC00" stroke-width="3"/>
</g>
</g>
<defs>
<filter id="filter0_d" x="0.500069" y="0.500092" width="56.4632" height="85.8833" filterUnits="userSpaceOnUse" color-interpolation-filters="sRGB">
<feFlood flood-opacity="0" result="BackgroundImageFix"/>
<feColorMatrix in="SourceAlpha" type="matrix" values="0 0 0 0 0 0 0 0 0 0 0 0 0 0 0 0 0 0 127 0"/>
<feOffset dx="-3"/>
<feGaussianBlur stdDeviation="2"/>
<feColorMatrix type="matrix" values="0 0 0 0 0 0 0 0 0 0 0 0 0 0 0 0 0 0 0.25 0"/>
<feBlend mode="normal" in2="BackgroundImageFix" result="effect1_dropShadow"/>
<feBlend mode="normal" in="SourceGraphic" in2="effect1_dropShadow" result="shape"/>
</filter>
<filter id="filter1_d" x="51.5" y="0.500092" width="56.4632" height="85.8833" filterUnits="userSpaceOnUse" color-interpolation-filters="sRGB">
<feFlood flood-opacity="0" result="BackgroundImageFix"/>
<feColorMatrix in="SourceAlpha" type="matrix" values="0 0 0 0 0 0 0 0 0 0 0 0 0 0 0 0 0 0 127 0"/>
<feOffset dx="3"/>
<feGaussianBlur stdDeviation="2"/>
<feColorMatrix type="matrix" values="0 0 0 0 0 0 0 0 0 0 0 0 0 0 0 0 0 0 0.25 0"/>
<feBlend mode="normal" in2="BackgroundImageFix" result="effect1_dropShadow"/>
<feBlend mode="normal" in="SourceGraphic" in2="effect1_dropShadow" result="shape"/>
</filter>
</defs>
</svg>
