<svg width="305" height="411" viewBox="0 0 305 411" fill="none" xmlns="http://www.w3.org/2000/svg">
<g id="monitor">
<path id="Vector" opacity="0.4" d="M126.4 383.18L68.4 349.69C64.21 347.27 64.74 343.05 69.57 340.26L107.15 318.57L180.3 360.8L142.72 382.5C137.88 385.29 130.58 385.59 126.4 383.18Z" fill="#D6D8E5"/>
<path id="Vector_2" d="M130.63 380.69L72.63 347.19C68.45 344.78 68.97 340.56 73.8 337.77L111.39 316.08L184.54 358.31L147 380C142.12 382.8 134.81 383.1 130.63 380.69Z" fill="#B1B4C4"/>
<path id="Vector_3" d="M184.53 358.31V356.1L181.15 358.05L184.53 358.31Z" fill="#B1B4C4"/>
<path id="Vector_4" d="M69.8 343.2V340.95L73.27 342.39L69.8 343.2Z" fill="#B1B4C4"/>
<path id="Vector_5" d="M130.63 378.47L72.63 344.98C68.45 342.56 68.97 338.35 73.8 335.56L111.39 313.86L184.54 356.1L147 377.79C142.12 380.58 134.81 380.89 130.63 378.47Z" fill="#D6D8E5"/>
<path id="Vector_6" d="M111.57 313.96L102.52 283.92L176.47 326.34L184.53 356.1L111.57 313.96Z" fill="#9EA1AF"/>
<path id="Vector_7" d="M182.39 357.33L184.53 356.1L181.34 353.55L182.39 357.33Z" fill="#9EA1AF"/>
<path id="Vector_8" d="M109.24 315.09L100.19 285.05L174.14 327.47L182.38 357.33L109.24 315.09Z" fill="#B1B4C4"/>
<path id="Vector_9" d="M297 408L10.71 242.69C6.71001 240.37 3.44 234.15 3.44 228.8V7.37001C3.44 2.01001 6.70001 -0.449992 10.71 1.87001L297 167.14C301 169.46 304.27 175.68 304.27 181.03V402.46C304.24 407.81 301 410.27 297 408Z" fill="#C4C7D6"/>
<path id="Vector_10" d="M298.44 410.24L301.61 408.41L300.24 399.01L298.44 410.24Z" fill="#C4C7D6"/>
<path id="Vector_11" d="M2.92999 3.24001L6.05 1.43001L10.54 4.00001C10.54 4.00001 5.76 4.73001 5.64 4.70001C5.52 4.67001 2.92999 3.24001 2.92999 3.24001Z" fill="#B1B4C4"/>
<path id="Vector_12" d="M294.34 409.47L8.09 244.2C4.09 241.88 0.820007 235.67 0.820007 230.31V8.88001C0.820007 3.53001 4.07 1.07001 8.09 3.39001L294.34 168.66C298.34 170.98 301.61 177.2 301.61 182.55V404C301.61 409.33 298.36 411.79 294.34 409.47Z" fill="#E4E7F2"/>
<path id="Vector_13" d="M293.84 409.76L7.58 244.49C3.58 242.17 0.309998 235.95 0.309998 230.6V9.17C0.309998 3.82 3.57 1.36001 7.58 3.68L293.84 169C297.84 171.31 301.11 177.53 301.11 182.89V404.26C301.11 409.62 297.85 412.08 293.84 409.76Z" fill="#D6D8E5"/>
<path id="Vector_14" d="M297.17 396.29L4 227L4.10001 10.06C4.10001 7.84 5.66 6.94 7.58 8.06L293.84 173.32C294.849 173.978 295.689 174.864 296.294 175.906C296.898 176.948 297.25 178.117 297.32 179.32L297.17 396.29Z" fill="white"/>
<path id="Vector_15" d="M119.72 103.08L25.8 48.86C25.3665 48.5475 25.0122 48.1378 24.7656 47.6637C24.519 47.1896 24.3869 46.6644 24.38 46.13V39.58C24.38 38.58 25.01 38.05 25.8 38.5L119.72 92.72C120.152 93.0341 120.505 93.4442 120.751 93.9179C120.998 94.3916 121.131 94.9161 121.14 95.45V102C121.14 103.05 120.5 103.54 119.72 103.08Z" fill="#E9EAF2"/>
<path id="Vector_16" d="M95.6 104.65L26.23 64.6C25.7948 64.2907 25.4386 63.8833 25.1902 63.4108C24.9417 62.9382 24.8081 62.4138 24.8 61.88V58.62C24.8 57.62 25.44 57.08 26.23 57.54L95.6 97.59C96.0291 97.903 96.3791 98.312 96.6221 98.7842C96.8652 99.2564 96.9946 99.7789 97 100.31V103.57C97 104.62 96.38 105.11 95.6 104.65Z" fill="#E9EAF2"/>
<path id="Vector_17" d="M95.6 117L26.23 77C25.7948 76.6907 25.4386 76.2833 25.1902 75.8108C24.9417 75.3382 24.8081 74.8138 24.8 74.28V71C24.8 70 25.44 69.46 26.23 69.92L95.6 110C96.0328 110.311 96.3866 110.719 96.6332 111.191C96.8798 111.664 97.0123 112.187 97.02 112.72V115.98C97 117 96.38 117.47 95.6 117Z" fill="#E9EAF2"/>
<path id="Vector_18" d="M82.51 121.82L26.23 89.32C25.7948 89.0107 25.4386 88.6033 25.1902 88.1308C24.9417 87.6582 24.8081 87.1338 24.8 86.6V83.34C24.8 82.34 25.44 81.8 26.23 82.26L82.51 114.75C82.9448 115.062 83.3006 115.471 83.5489 115.945C83.7972 116.419 83.9311 116.945 83.94 117.48V120.74C83.94 121.79 83.3 122.27 82.51 121.82Z" fill="#8C50FF"/>
<path id="Vector_19" d="M119.72 232.84L25.8 178.62C25.3665 178.308 25.0122 177.898 24.7656 177.424C24.519 176.95 24.3869 176.424 24.38 175.89V169.34C24.38 168.29 25.01 167.81 25.8 168.26L119.72 222.48C120.152 222.794 120.505 223.204 120.751 223.678C120.998 224.152 121.131 224.676 121.14 225.21V231.76C121.14 232.81 120.5 233.29 119.72 232.84Z" fill="#E9EAF2"/>
<path id="Vector_20" d="M95.6 234.41L26.23 194.41C25.7952 194.098 25.4394 193.689 25.1911 193.215C24.9428 192.741 24.8089 192.215 24.8 191.68V188.42C24.8 187.37 25.44 186.89 26.23 187.35L95.6 227.35C96.0318 227.664 96.3848 228.074 96.6312 228.548C96.8776 229.022 97.0107 229.546 97.02 230.08V233.34C97 234.38 96.38 234.86 95.6 234.41Z" fill="#E9EAF2"/>
<path id="Vector_21" d="M95.6 246.77L26.23 206.72C25.796 206.41 25.4406 206.002 25.1923 205.53C24.944 205.057 24.8096 204.534 24.8 204V200.74C24.8 199.74 25.44 199.21 26.23 199.67L95.6 239.67C96.0318 239.984 96.3848 240.394 96.6312 240.868C96.8776 241.342 97.0107 241.866 97.02 242.4V245.66C97 246.74 96.38 247.22 95.6 246.77Z" fill="#E9EAF2"/>
<path id="Vector_22" d="M82.51 251.57L26.23 219.08C25.7946 218.769 25.4384 218.359 25.1901 217.885C24.9417 217.411 24.8081 216.885 24.8 216.35V213.09C24.8 212.04 25.44 211.56 26.23 212.02L82.51 244.51C82.9448 244.822 83.3006 245.231 83.5489 245.705C83.7972 246.179 83.9311 246.705 83.94 247.24V250.5C83.94 251.55 83.3 252 82.51 251.57Z" fill="#8C50FF"/>
<path id="Vector_23" d="M144.85 248.94C144.85 248.94 155.21 257.64 170.17 245.76C180.85 237 190.4 242 195.72 245C201.04 248 208.72 249.84 223.35 276.26C223.35 276.26 228.11 284.54 235.97 289.08C243.83 293.62 247.61 291.4 253.79 282.08C259.97 272.76 264.02 262.44 275.38 269.18V362.87L143.83 287V248.33L144.85 248.94Z" fill="#F5F6FF"/>
<path id="Vector_24" d="M116.26 209.22L26.26 157.22C25.8252 156.908 25.4694 156.499 25.2211 156.025C24.9728 155.551 24.8389 155.025 24.83 154.49V102.56C24.83 101.56 25.47 101.03 26.26 101.48L116.26 153.48C116.695 153.792 117.051 154.201 117.299 154.675C117.547 155.149 117.681 155.675 117.69 156.21V208.16C117.69 209.19 117.05 209.67 116.26 209.22Z" fill="#E9EAF2"/>
<path id="Vector_25" d="M143.83 246.76V286.98L275.38 362.92V269.23" stroke="#E9EAF2" stroke-width="0.31" stroke-miterlimit="10"/>
<path id="Vector_26" d="M195.53 245.47V316.73" stroke="#E9EAF2" stroke-width="0.31" stroke-miterlimit="10"/>
<path id="Vector_27" d="M235.78 290.54V339.96" stroke="#E9EAF2" stroke-width="0.31" stroke-miterlimit="10"/>
<path id="Vector_28" d="M143.83 248.33C167.17 262.8 170.47 230.09 195.9 244.77C221.33 259.45 217.82 278.58 236.59 289.42C255.36 300.26 255.8 257.92 275.38 269.23" stroke="#E9EAF2" stroke-width="1.53" stroke-miterlimit="10"/>
<path id="Vector_29" d="M197.719 249.284C198.929 248.585 198.927 246.317 197.715 244.217C196.502 242.118 194.539 240.982 193.329 241.68C192.119 242.379 192.12 244.648 193.333 246.747C194.545 248.847 196.509 249.983 197.719 249.284Z" fill="#8C50FF"/>
<path id="Vector_30" d="M279.411 274.129C280.626 273.431 280.629 271.154 279.417 269.045C278.204 266.936 276.236 265.792 275.021 266.491C273.805 267.189 273.802 269.466 275.014 271.575C276.227 273.684 278.195 274.828 279.411 274.129Z" fill="#8C50FF"/>
<path id="Vector_31" d="M239.644 294.643C240.859 293.945 240.862 291.669 239.65 289.559C238.437 287.45 236.469 286.306 235.254 287.005C234.038 287.704 234.035 289.98 235.247 292.089C236.46 294.199 238.428 295.342 239.644 294.643Z" fill="#8C50FF"/>
<path id="Vector_32" d="M146.025 252.141C147.235 251.442 147.233 249.174 146.021 247.074C144.809 244.974 142.845 243.839 141.635 244.537C140.425 245.236 140.427 247.504 141.639 249.604C142.851 251.704 144.815 252.84 146.025 252.141Z" fill="#8C50FF"/>
<path id="Vector_33" d="M147.54 179.23L142.15 176.12C141.715 175.808 141.359 175.399 141.111 174.925C140.863 174.451 140.729 173.925 140.72 173.39V147.39C140.72 146.34 141.36 145.86 142.15 146.31L147.54 149.43C147.974 149.731 148.332 150.129 148.585 150.593C148.839 151.056 148.981 151.572 149 152.1V178.15C149 179.2 148.33 179.68 147.54 179.23Z" fill="#E9EAF2"/>
<path id="Vector_34" d="M160 186.4L154.61 183.28C154.175 182.971 153.819 182.563 153.57 182.091C153.322 181.618 153.188 181.094 153.18 180.56V127.56C153.18 126.56 153.82 126.02 154.61 126.48L160 129.6C160.435 129.912 160.791 130.321 161.039 130.795C161.287 131.269 161.421 131.795 161.43 132.33V185.33C161.39 186.37 160.75 186.85 160 186.4Z" fill="#8C50FF"/>
<path id="Vector_35" d="M184.79 200.73L179.4 197.62C178.963 197.31 178.606 196.901 178.358 196.426C178.109 195.952 177.977 195.426 177.97 194.89V147.05C177.97 146 178.61 145.52 179.4 145.97L184.79 149.08C185.225 149.392 185.581 149.801 185.829 150.275C186.077 150.749 186.211 151.275 186.22 151.81V199.66C186.22 200.71 185.58 201.19 184.79 200.73Z" fill="#E9EAF2"/>
<path id="Vector_36" d="M197.21 207.9L191.82 204.79C191.385 204.478 191.029 204.069 190.781 203.595C190.533 203.121 190.399 202.595 190.39 202.06V162.42C190.39 161.42 191.03 160.89 191.82 161.34L197.21 164.46C197.645 164.769 198.001 165.177 198.25 165.649C198.498 166.122 198.632 166.646 198.64 167.18V206.82C198.64 207.88 198 208.36 197.21 207.9Z" fill="#8C50FF"/>
<path id="Vector_37" d="M221.94 222.18L216.54 219.07C216.106 218.758 215.752 218.348 215.506 217.874C215.259 217.4 215.127 216.874 215.12 216.34V196.75C215.12 195.69 215.75 195.21 216.54 195.67L221.94 198.78C222.372 199.094 222.725 199.504 222.971 199.978C223.218 200.452 223.351 200.976 223.36 201.51V221.1C223.36 222.15 222.72 222.63 221.94 222.18Z" fill="#E9EAF2"/>
<path id="Vector_38" d="M234.35 229.35L229 226.23C228.565 225.921 228.209 225.513 227.96 225.041C227.712 224.568 227.578 224.044 227.57 223.51V156.88C227.57 155.82 228.21 155.34 229 155.8L234.39 158.91C234.825 159.221 235.182 159.631 235.43 160.105C235.678 160.579 235.812 161.105 235.82 161.64V228.27C235.78 229.32 235.14 229.8 234.35 229.35Z" fill="#8C50FF"/>
<path id="Vector_39" d="M264.64 246.84L259.25 243.72C258.815 243.411 258.459 243.003 258.21 242.531C257.962 242.058 257.828 241.534 257.82 241V221.4C257.82 220.35 258.46 219.87 259.25 220.32L264.64 223.44C265.077 223.75 265.434 224.159 265.682 224.634C265.931 225.108 266.064 225.634 266.07 226.17V245.76C266.07 246.81 265.43 247.29 264.64 246.84Z" fill="#E9EAF2"/>
<path id="Vector_40" d="M277.06 254L271.67 250.88C271.233 250.57 270.876 250.161 270.628 249.686C270.379 249.212 270.246 248.686 270.24 248.15V222.15C270.24 221.1 270.88 220.62 271.67 221.07L277.06 224.18C277.495 224.492 277.851 224.901 278.099 225.375C278.347 225.849 278.481 226.375 278.49 226.91V252.96C278.49 254 277.85 254.46 277.06 254Z" fill="#8C50FF"/>
</g>
</svg>
