<svg width="144" height="321" viewBox="0 0 144 321" fill="none" xmlns="http://www.w3.org/2000/svg">
<g id="rocket">
<path id="Vector" opacity="0.15" d="M71.93 320.55C111.656 320.55 143.86 301.956 143.86 279.02C143.86 256.084 111.656 237.49 71.93 237.49C32.2042 237.49 0 256.084 0 279.02C0 301.956 32.2042 320.55 71.93 320.55Z" fill="#D6D8E5"/>
<path id="Vector_2" opacity="0.5" d="M71.1 297.74C93.2576 297.74 111.22 287.371 111.22 274.58C111.22 261.789 93.2576 251.42 71.1 251.42C48.9423 251.42 30.98 261.789 30.98 274.58C30.98 287.371 48.9423 297.74 71.1 297.74Z" fill="#EDEFF9"/>
<path id="Vector_3" d="M70.72 272.97C77.0382 272.97 82.16 270.011 82.16 266.36C82.16 262.709 77.0382 259.75 70.72 259.75C64.4019 259.75 59.28 262.709 59.28 266.36C59.28 270.011 64.4019 272.97 70.72 272.97Z" fill="#EDEFF9"/>
<path id="Vector_4" d="M82.1 178.73H60.1V265.19H82.1V178.73Z" fill="#EDEFF9"/>
<path id="fire" d="M59.05 177.75C59.05 177.75 59.65 195.53 72.3 227.42C72.3 227.42 84.08 201.74 85.3 177.21C86.52 152.68 59.05 177.75 59.05 177.75Z" fill="#FFBC00"/>
<path id="Vector_5" d="M43.6 110.81L14.33 139.29L10.85 176.48L46.25 158.73L52.69 113.37L43.6 110.81Z" fill="#8C50FF"/>
<path id="Vector_6" d="M101 110.81L130.26 139.29L133.75 176.48L98.22 157.5L91.91 113.37L101 110.81Z" fill="#8C50FF"/>
<path id="Vector_7" d="M71.93 182.24C79.9657 182.24 86.48 178.479 86.48 173.84C86.48 169.201 79.9657 165.44 71.93 165.44C63.8943 165.44 57.38 169.201 57.38 173.84C57.38 178.479 63.8943 182.24 71.93 182.24Z" fill="#424956"/>
<path id="Vector_8" d="M49.87 165.44V157.88H93.94V165.72L49.87 165.44Z" fill="#494949"/>
<path id="Vector_9" d="M71.93 178.17C84.1134 178.17 93.99 172.466 93.99 165.43C93.99 158.394 84.1134 152.69 71.93 152.69C59.7466 152.69 49.87 158.394 49.87 165.43C49.87 172.466 59.7466 178.17 71.93 178.17Z" fill="#2B303F"/>
<path id="Vector_10" d="M71.86 169.5C86.7275 169.5 98.78 162.543 98.78 153.96C98.78 145.378 86.7275 138.42 71.86 138.42C56.9925 138.42 44.94 145.378 44.94 153.96C44.94 162.543 56.9925 169.5 71.86 169.5Z" fill="#EDEFF9"/>
<path id="Vector_11" d="M100.93 126.28C100.93 127.53 100.93 128.76 100.93 129.95C100.93 130.95 100.93 131.95 100.93 132.95C100.93 134.3 100.86 135.59 100.81 136.85C100.81 138.42 100.7 139.91 100.62 141.34C100.54 142.77 100.47 144.17 100.37 145.46C99.96 151.11 99.97 155.27 99.27 156.9C95.46 165.81 82.57 160.9 76.21 157.7C73.86 156.52 72.31 155.55 72.31 155.55H71.73C71.73 155.55 69.89 156.55 67.17 157.63C60.5 160.33 48.61 165.12 45.31 156.87C44.72 155.39 44.13 150.5 43.77 145.38C43.68 144.1 43.6 142.73 43.52 141.27C43.44 139.81 43.4 138.36 43.34 136.79C43.34 135.54 43.27 134.25 43.24 132.91C43.24 131.91 43.24 130.91 43.24 129.91V126.24C43.06 91.35 46.76 35.56 58.98 11.75C62.51 4.86001 66.75 0.650009 71.82 0.400009H72.4C77.4 0.660009 81.69 4.85001 85.23 11.71C97.28 35.43 101.15 91 100.93 126.28Z" fill="#EDEFF9"/>
<path id="Vector_12" d="M72 93.38C77.6168 93.38 82.17 88.8267 82.17 83.21C82.17 77.5933 77.6168 73.04 72 73.04C66.3833 73.04 61.83 77.5933 61.83 83.21C61.83 88.8267 66.3833 93.38 72 93.38Z" fill="#2B303F"/>
<path id="Vector_13" d="M72 94.87C69.6938 94.87 67.4395 94.1862 65.522 92.9049C63.6045 91.6237 62.1101 89.8027 61.2275 87.6721C60.345 85.5415 60.1141 83.1971 60.564 80.9352C61.0139 78.6734 62.1244 76.5958 63.7551 74.9651C65.3858 73.3344 67.4634 72.2239 69.7252 71.774C71.987 71.3241 74.3315 71.555 76.4621 72.4376C78.5926 73.3201 80.4137 74.8146 81.6949 76.732C82.9761 78.6495 83.66 80.9039 83.66 83.21C83.6573 86.3016 82.428 89.2658 80.2419 91.4519C78.0558 93.638 75.0916 94.8673 72 94.87V94.87ZM72 74.53C70.2828 74.528 68.6036 75.0354 67.1749 75.988C65.7462 76.9405 64.6321 78.2955 63.9736 79.8814C63.3151 81.4673 63.1417 83.2128 63.4755 84.8972C63.8093 86.5817 64.6352 88.1292 65.8487 89.3441C67.0623 90.5591 68.6089 91.3867 70.2929 91.7225C71.9769 92.0582 73.7227 91.8869 75.3093 91.2302C76.896 90.5735 78.2522 89.461 79.2064 88.0334C80.1606 86.6057 80.67 84.9272 80.67 83.21C80.6673 80.9105 79.7534 78.7057 78.1283 77.0788C76.5032 75.4518 74.2995 74.5353 72 74.53V74.53Z" fill="#424956"/>
<path id="Vector_14" d="M72 63.48C77.6168 63.48 82.17 58.9267 82.17 53.31C82.17 47.6933 77.6168 43.14 72 43.14C66.3833 43.14 61.83 47.6933 61.83 53.31C61.83 58.9267 66.3833 63.48 72 63.48Z" fill="#2B303F"/>
<path id="Vector_15" d="M72 65C69.6923 65.002 67.4358 64.3197 65.5158 63.0395C63.5958 61.7593 62.0985 59.9385 61.2131 57.8075C60.3277 55.6764 60.094 53.3307 60.5416 51.0668C60.9891 48.8029 62.0978 46.7226 63.7275 45.0887C65.3572 43.4548 67.4347 42.3408 69.6974 41.8874C71.9601 41.4341 74.3064 41.6617 76.4398 42.5417C78.5731 43.4216 80.3977 44.9142 81.6828 46.8309C82.968 48.7476 83.656 51.0023 83.66 53.31C83.6627 56.406 82.436 59.3764 80.2496 61.5684C78.0632 63.7604 75.096 64.9947 72 65V65ZM72 44.66C70.2824 44.658 68.6028 45.1657 67.1739 46.1187C65.7449 47.0717 64.6308 48.4272 63.9726 50.0137C63.3144 51.6002 63.1417 53.3462 63.4763 55.0309C63.8109 56.7156 64.6378 58.2632 65.8523 59.4777C67.0668 60.6922 68.6144 61.5191 70.2991 61.8537C71.9838 62.1883 73.7298 62.0156 75.3163 61.3574C76.9028 60.6991 78.2583 59.5851 79.2113 58.1561C80.1643 56.7272 80.672 55.0476 80.67 53.33C80.6713 52.1901 80.4481 51.0612 80.0131 50.0075C79.5781 48.9539 78.9398 47.9963 78.1348 47.1894C77.3297 46.3824 76.3735 45.742 75.3209 45.3046C74.2683 44.8671 73.1399 44.6413 72 44.64V44.66Z" fill="#424956"/>
<path id="Vector_16" d="M100.93 146.39C100.93 147.64 100.93 148.87 100.93 150.07C99.93 153.37 97.21 156.53 92.79 159.07C81.33 165.68 62.79 165.68 51.28 159.07C46.86 156.51 44.15 153.34 43.14 150.07V146.4C44.14 149.76 46.84 152.96 51.32 155.55C62.79 162.16 81.37 162.16 92.83 155.55C97.22 152.93 100 149.74 100.93 146.39Z" fill="#8C50FF"/>
<path id="Vector_17" d="M100.84 152.21C100.84 153.55 100.77 154.85 100.72 156.1C99.6 159.22 96.94 162.19 92.72 164.61C81.26 171.23 62.72 171.23 51.21 164.61C47 162.17 44.34 159.18 43.21 156.04C43.21 154.79 43.14 153.5 43.11 152.17C44.11 155.43 46.84 158.53 51.2 161.05C62.67 167.67 81.25 167.67 92.71 161.05C97.09 158.54 99.79 155.45 100.84 152.21Z" fill="#8C50FF"/>
<path id="Vector_18" d="M100.53 141.88C99.32 144.81 96.72 147.6 92.75 149.88C81.29 156.49 62.75 156.49 51.24 149.88C47.24 147.56 44.64 144.76 43.43 141.8C43.51 143.26 43.59 144.63 43.68 145.91C44.97 148.67 47.49 151.27 51.24 153.44C56.1312 156.105 61.5277 157.713 67.08 158.16C70.0719 158.451 73.0839 158.474 76.08 158.23C81.9057 157.862 87.5809 156.227 92.71 153.44C96.43 151.29 98.94 148.72 100.24 145.99L100.53 141.88Z" fill="#8C50FF"/>
<path id="Vector_19" d="M85.05 11.73C76.4969 14.3553 67.3531 14.3553 58.8 11.73C62.33 4.84 66.57 0.630005 71.64 0.380005H72.22C77.27 0.680005 81.51 4.87 85.05 11.73Z" fill="#8C50FF"/>
<path id="Vector_20" d="M74.79 110.89H69.8V176.4H74.79V110.89Z" fill="#8C50FF"/>
</g>
</svg>
