<svg width="406" height="321" viewBox="0 0 406 321" fill="none" xmlns="http://www.w3.org/2000/svg">
<g id="Sent messages _Two Color 1">
<g id="plane">
<path id="track" d="M312.897 128.785C312.897 128.785 350.957 138.495 358.871 106.099C366.784 73.7042 331.366 49.3599 306.886 54.0425C282.406 58.7251 301.258 118.169 251.678 133.978C251.678 133.978 214.172 164.051 190.419 155.668C166.666 147.286 190.802 82.0996 160.272 74.8142C129.742 67.5288 118.433 70.8079 118.433 70.8079" stroke="#352D2D" stroke-width="2.03" stroke-linecap="round" stroke-linejoin="round" stroke-dasharray="3.05 10.15"/>
<path id="Vector" d="M124.061 55.7777L76 45.6598L109.357 81.7041L124.061 55.7777Z" fill="#FF120D"/>
<path id="Vector_2" d="M119.873 63.1652L120.706 76.3964L113.968 73.5638L119.873 63.1652Z" fill="#FF120D"/>
<path id="Vector_3" opacity="0.09" d="M119.873 63.1652L120.706 76.3964L113.968 73.5638L119.873 63.1652Z" fill="black"/>
<path id="Vector_4" opacity="0.09" d="M76 45.6598L119.873 63.1652L114.998 71.7521L76 45.6598Z" fill="black"/>
</g>
<path id="Vector_5" d="M300.14 110.626L216.327 94.1721L190.619 216.317L274.432 232.771L300.14 110.626Z" fill="#C1C1C1"/>
<path id="Vector_6" d="M301.792 102.782L217.979 86.3281L192.271 208.473L276.084 224.927L301.792 102.782Z" fill="#D5D1D1"/>
<path id="Vector_7" d="M293.583 110.72L222.34 96.7339L203.772 184.957L275.015 198.944L293.583 110.72Z" fill="white"/>
<path id="button" d="M265.761 159.891L228.23 152.523L225.061 167.577L262.592 174.945L265.761 159.891Z" fill="#24285B"/>
<path id="Vector_8" d="M256 319V257.492L319.635 252L331 319H256Z" fill="#126EB3"/>
<path id="Vector_9" d="M244 226.33L259.696 247.563V257L315 252.244L312.191 226.33C312.191 226.33 318.97 195.458 310.502 175.367C306.729 166.053 305.056 156.075 305.596 146.092C306.018 136.897 292.287 134.791 289.768 143.682C288.726 147.488 288.001 155.098 288.08 162.81C288.107 166.06 287.396 169.276 285.996 172.234C282.633 179.413 276.987 193.505 280.377 201.407L273.861 232.203L244 226.33Z" fill="#F4A28C"/>
<path id="Vector_10" opacity="0.42" d="M237.5 209C240.538 209 243 206.538 243 203.5C243 200.462 240.538 198 237.5 198C234.462 198 232 200.462 232 203.5C232 206.538 234.462 209 237.5 209Z" fill="white"/>
<path id="Vector_11" opacity="0.09" d="M275.172 232.72L281 255.325L260.356 257V247.769L244 227L275.172 232.72Z" fill="black"/>
<g id="Hand1">
<path id="Vector_12" d="M186.747 247.699L180.709 261.084L136.638 236.267C151.077 213.071 154.367 186.175 164.499 177.805C174.632 169.435 187.655 186.42 201.054 181.454L203.562 180.34C202.768 180.754 201.934 181.128 201.054 181.454V187.711L206.165 199.653L212.349 203.949C212.349 203.949 224.635 211.553 226.3 217.856C227.964 224.159 222.178 232.388 209.747 237.492C197.315 242.596 186.747 247.699 186.747 247.699Z" fill="#F4A28C"/>
<path id="Vector_13" d="M132.556 233.958L187.103 257.013L167.115 321L90.2545 319.227L132.556 233.958Z" fill="#126EB3"/>
<path id="Vector_14" d="M224.947 158.159C232.849 153.272 238.905 155.906 237.955 162.9C237.841 163.739 237.394 164.977 236.696 166.506C235.097 170.009 232.178 175.042 228.919 180.309C223.661 188.807 217.517 197.915 214.597 202.193C213.526 203.762 212.889 204.681 212.889 204.681L202.911 200.281L194.451 187.711L194.451 185.825L194.451 183.311L199.657 182.054L203.562 180.309C206.382 178.785 208.144 176.796 210.155 174.526L210.168 174.512C212.409 171.983 215.382 168.958 217.228 166.341C218.368 164.725 219.498 163.342 220.685 161.964C221.997 160.44 223.384 159.125 224.947 158.159Z" fill="#F4A28C"/>
</g>
<path id="Vector_15" d="M271.816 125.69L236.315 118.864L231.486 142.289L266.987 149.115L271.816 125.69Z" fill="#FF120D"/>
<g id="mail">
<path id="Vector_16" opacity="0.72" d="M271.816 125.69L236.315 118.864L231.486 142.289L266.987 149.115L271.816 125.69Z" fill="white"/>
<path id="Vector_17" d="M236.327 118.846L250.674 138.724L271.825 125.672L236.327 118.846Z" fill="#FF120D"/>
</g>
</g>
</svg>
