<svg width="634" height="598" viewBox="0 0 634 598" fill="none" xmlns="http://www.w3.org/2000/svg">
<g id="vr 1" clip-path="url(#clip0)">
<g id="Background">
<path id="Vector" opacity="0.18" d="M262.858 7.3478C311.658 -7.1922 367.858 -0.552202 407.988 30.8378C444.469 59.4278 463.988 104.148 494.278 139.268C523.828 173.568 563.279 198.268 592.499 232.858C621.719 267.448 639.349 318.968 616.018 357.768C598.919 386.198 562.268 404.218 558.919 437.218C557.919 447.588 560.489 457.988 560.469 468.408C560.369 510.708 517.229 541.188 475.569 548.528C433.909 555.868 390.918 547.898 348.918 552.718C311.918 556.958 276.548 571.008 239.589 575.868C202.629 580.728 160.588 574.088 137.098 545.148C119.338 523.268 115.668 493.148 101.618 468.758C72.1685 417.588 -2.38151 388.708 0.0584923 329.758C1.85849 286.988 44.8785 259.598 68.2285 223.758C97.0785 179.398 98.5485 126.348 138.068 89.1778C172.918 56.3278 216.108 21.2678 262.858 7.3478Z" fill="#E9A80C"/>
</g>
<g id="Smoke">
<path id="Vector_2" opacity="0.57" d="M108.35 332.46C94.77 339.89 81.2 349.46 75.28 363.75C66.9 384.04 76.86 408.01 92.72 423.2C124.34 453.48 172.59 456.2 216.37 456.28C282.29 456.407 348.177 454.51 414.03 450.59C434.15 449.39 454.57 447.94 473.55 441.12C499.55 431.77 520.94 413.05 541.46 394.55C551.65 385.37 562.14 375.63 566.89 362.77C576.37 337.13 559.74 308.99 539.43 290.7C507.08 261.8 465.117 246.001 421.74 246.39C419.86 252.39 426.43 257.39 432.12 260.02C450.28 268.4 469.76 274.18 486.63 284.94C503.5 295.7 517.95 313.06 518.21 333.06C518.57 359.8 494.46 380.22 470.59 392.27C415.24 420.21 351.35 425.32 289.35 425.72C251.94 425.99 213.66 424.57 178.74 411.12C171.36 408.28 163.44 404.12 161.03 396.58C159.24 391.01 160.98 384.92 163.41 379.58C167.319 371.176 172.905 363.659 179.825 357.493C186.745 351.326 194.853 346.639 203.65 343.72C215.65 339.81 229.08 339.11 239.22 331.61C247.22 325.69 252.45 310.99 243.53 304.11C235.44 297.87 211.73 302.66 202.53 303.55C169.511 306.75 137.478 316.583 108.35 332.46Z" fill="white"/>
<path id="Vector_3" opacity="0.57" d="M228.93 240.41C233.01 256.52 251.93 263.1 268.06 266.91C308.6 276.48 341.89 274.29 382.84 266.63C401.24 263.19 429.52 262.14 451.77 268.3C453.77 268.87 458.89 251.47 457.61 249.77C456.72 248.59 439.8 246.64 438.35 246.37C425.56 244.05 393.66 244.91 380.74 246.37C349.65 249.91 313.52 210.3 302.06 239.28C300.38 243.54 225.56 227.06 228.93 240.41Z" fill="white"/>
</g>
<g id="Panel1">
<path id="Vector_4" d="M60.8 21.36L196.87 76.22C198.917 77.0468 200.67 78.4661 201.905 80.2959C203.139 82.1257 203.799 84.2826 203.8 86.49V318.63C203.801 320.464 203.345 322.269 202.476 323.884C201.606 325.498 200.348 326.872 198.817 327.88C197.285 328.888 195.526 329.5 193.699 329.661C191.873 329.821 190.034 329.526 188.35 328.8L49.35 269.03C47.3485 268.159 45.6493 266.715 44.4661 264.88C43.2829 263.046 42.6684 260.903 42.7 258.72L45.59 31.49C45.6122 29.6899 46.073 27.9224 46.9326 26.3407C47.7922 24.7589 49.0245 23.4107 50.5228 22.4128C52.0211 21.4149 53.7402 20.7974 55.5311 20.614C57.3219 20.4305 59.1305 20.6866 60.8 21.36Z" fill="#E9A80C"/>
<path id="Vector_5" d="M51.93 24.86L187.93 79.72C189.987 80.5363 191.754 81.9496 193.001 83.7781C194.249 85.6066 194.92 87.7665 194.93 89.98V322.13C194.928 323.963 194.471 325.767 193.601 327.38C192.73 328.993 191.473 330.365 189.942 331.373C188.411 332.381 186.654 332.993 184.828 333.155C183.002 333.317 181.164 333.023 179.48 332.3L40.48 272.52C38.4708 271.654 36.7625 270.213 35.5703 268.379C34.3781 266.544 33.7552 264.398 33.78 262.21L36.67 34.98C36.6906 33.1745 37.1525 31.4014 38.0155 29.8153C38.8784 28.2293 40.1163 26.8784 41.6211 25.8805C43.1259 24.8825 44.852 24.2678 46.6488 24.0899C48.4457 23.9121 50.2588 24.1764 51.93 24.86Z" fill="#E9A80C"/>
<path id="Vector_6" d="M51.93 24.86L187.93 79.72C189.987 80.5363 191.754 81.9496 193.001 83.7781C194.249 85.6066 194.92 87.7665 194.93 89.98V322.13C194.928 323.963 194.471 325.767 193.601 327.38C192.73 328.993 191.473 330.365 189.942 331.373C188.411 332.381 186.654 332.993 184.828 333.155C183.002 333.317 181.164 333.023 179.48 332.3L40.48 272.52C38.4708 271.654 36.7625 270.213 35.5703 268.379C34.3781 266.544 33.7552 264.398 33.78 262.21L36.67 34.98C36.6906 33.1745 37.1525 31.4014 38.0155 29.8153C38.8784 28.2293 40.1163 26.8784 41.6211 25.8805C43.1259 24.8825 44.852 24.2678 46.6488 24.0899C48.4457 23.9121 50.2588 24.1764 51.93 24.86Z" fill="url(#paint0_linear)"/>
</g>
<path id="Vector_7" d="M436.86 288.66L409.86 290.72L406.68 274.52C404.46 269.65 409.86 290.72 395.18 370.17L386.72 368.25L297.49 348.03L319.14 234.03L281.41 231.48L287.79 196.02L306.56 197.62C306.56 197.62 340.29 194.1 365.41 197.62C390.53 201.14 408.25 202.03 420.16 214.29C432.07 226.55 436.86 288.66 436.86 288.66Z" fill="#E9A80C"/>
<path id="Vector_8" d="M406.68 274.52C404.46 269.65 409.86 290.72 395.18 370.17L386.72 368.25L377.84 366.25C377.84 366.25 387.21 344.25 381.95 340.25C376.69 336.25 350.82 345.94 327.64 348.04C304.46 350.14 307.41 343.67 307.41 343.67C307.41 343.67 328.61 324.39 364.5 313.94C400.39 303.49 402.09 249.66 402.09 249.66L406.68 274.52Z" fill="url(#paint1_linear)"/>
<path id="Vector_9" d="M351.41 202.89C351.41 202.89 374.05 203.83 382.49 197.08L389.56 201.02C389.56 201.02 387.63 214.56 376.56 216.36C365.49 218.16 351.39 217.55 351.41 202.89Z" fill="#E9A80C"/>
<path id="Vector_10" d="M351.41 202.89C351.41 202.89 374.05 203.83 382.49 197.08L389.56 201.02C389.56 201.02 387.63 214.56 376.56 216.36C365.49 218.16 351.39 217.55 351.41 202.89Z" fill="url(#paint2_linear)"/>
<g id="Hand2">
<path id="Vector_11" d="M331.56 317.19L308.31 309.42C308.31 309.42 305.57 311.23 309.64 314.23C311.365 315.538 313.015 316.944 314.58 318.44L331.56 317.19Z" fill="url(#paint3_linear)"/>
<g id="Vector_12">
<path d="M408.087 324.777C411.391 324.301 414.585 323.241 417.524 321.645C423.388 318.473 428.669 316.006 430.5 311.5C433.345 304.5 431.5 306 431.5 306L409.478 300.135C409.478 300.135 409.208 299.832 406.976 300.135C404.745 300.438 333.852 317.614 333.852 317.614C333.852 317.614 322.754 313.987 313.017 317.765C303.28 321.544 288.929 330.334 292.582 334.941C293.139 335.622 293.836 336.172 294.623 336.556C295.411 336.94 296.271 337.147 297.145 337.164C300.308 337.265 299.067 340.993 300.968 342.408C303.51 344.297 328.769 346.247 337.415 337.184C339.627 334.881 391.985 327.121 408.087 324.777Z" fill="url(#paint4_linear)"/>
<path d="M408.087 324.777C411.391 324.301 414.585 323.241 417.524 321.645C423.388 318.473 428.669 316.006 430.5 311.5C433.345 304.5 431.5 306 431.5 306L409.478 300.135C409.478 300.135 409.208 299.832 406.976 300.135C404.745 300.438 333.852 317.614 333.852 317.614C333.852 317.614 322.754 313.987 313.017 317.765C303.28 321.544 288.929 330.334 292.582 334.941C293.139 335.622 293.836 336.172 294.623 336.556C295.411 336.94 296.271 337.147 297.145 337.164C300.308 337.265 299.067 340.993 300.968 342.408C303.51 344.297 328.769 346.247 337.415 337.184C339.627 334.881 391.985 327.121 408.087 324.777Z" fill="url(#paint5_linear)"/>
</g>
</g>
<path id="Vector_13" d="M435 288C435 288 434.052 301.51 431.5 308C431.5 308 406.078 301 407.027 300C408.923 299 409.387 290.029 409.387 290.029L435 288Z" fill="#ECC4D7"/>
<path id="Vector_14" d="M353.01 193.24C353.52 189.24 353.72 184.81 356.29 181.65C357.878 179.936 359.778 178.541 361.89 177.54L378.82 168.14C380.88 167 383.12 165.82 385.45 166.14C386.016 166.188 386.557 166.396 387.01 166.74C388.14 167.67 387.96 169.43 387.68 170.88C385.96 179.62 384.23 188.36 382.49 197.1C382.108 199.58 381.399 201.997 380.38 204.29C378.98 206.874 376.885 209.013 374.331 210.466C371.776 211.919 368.866 212.627 365.93 212.51C361.13 212.238 356.621 210.124 353.34 206.61C349.54 202.62 352.39 198.19 353.01 193.24Z" fill="url(#paint6_linear)"/>
<g id="Hand1">
<path id="Vector_15" d="M283 192.5L277 198.5L273.5 208.5C276 216.5 266 211.5 264.5 208.5C259 203 242.75 156.33 242.75 156.33C242.75 156.33 240.8 147.06 234.97 143.91C229.14 140.76 229.43 130.58 229.43 127.28C229.43 123.99 226.43 118.91 223.5 114.88C220.57 110.85 223.5 108.74 223.5 108.74C223.5 108.74 231.07 115.92 231.21 115.03C231.35 114.14 227.43 104.31 225.21 101.84C222.99 99.37 223.12 95.28 224.32 94.68C225.52 94.08 237.32 109.49 237.32 109.49C236.951 105.623 235.989 101.835 234.47 98.26C232.08 93.03 232.68 87.19 234.47 88.09C236.26 88.99 243.75 106.09 243.75 102.82C243.75 99.55 237.75 82.71 242.55 84.5C244.34 85.17 246.29 88.64 248.24 93.96C251.49 102.87 254.71 116.96 257.04 131.81C260.79 155.46 283 192.5 283 192.5Z" fill="url(#paint7_linear)"/>
<path id="Vector_16" d="M251.48 116.86C251.48 116.86 246.4 110.98 242.65 111.75C238.9 112.52 243.4 118.65 243.4 118.65C243.4 118.65 246.54 124.04 245.05 127.78C243.56 131.52 242.51 139.9 242.95 140.2C243.39 140.5 239.66 143.95 235.62 135.12C234.297 132.192 232.36 129.583 229.94 127.47C229.94 124.18 226.94 119.1 224.01 115.07C221.08 111.04 224.01 108.93 224.01 108.93C224.01 108.93 231.58 116.11 231.72 115.22C231.86 114.33 227.94 104.5 225.72 102.03C223.5 99.56 223.63 95.47 224.83 94.87C226.03 94.27 237.83 109.68 237.83 109.68C237.461 105.813 236.499 102.025 234.98 98.45C232.59 93.22 233.19 87.38 234.98 88.28C236.77 89.18 244.26 106.28 244.26 103.01C244.26 99.74 238.26 82.9 243.06 84.69C244.85 85.36 246.8 88.83 248.75 94.15C248.79 94.15 251.93 110.27 251.48 116.86Z" fill="url(#paint8_linear)"/>
</g>
<path id="Vector_17" d="M283.602 221C283.602 221 286.998 199.388 288 195.917L279.5 188L270 212.739C270 212.739 279.274 217.927 283.602 221Z" fill="#ECC4D7"/>
<path id="Vector_18" d="M431.63 539.84L395.18 564.95C389.71 554.37 409.86 534.45 409.86 534.45C409.86 534.45 378.86 485.6 366.77 452.96C357.56 428.2 353.77 402.51 339.32 402.72C334.73 402.79 329.07 405.47 321.81 411.62C291.67 437.12 301.16 523.72 301.16 523.72L292.16 528.82L255.99 549.22L254.46 540.51C253.02 520.99 279.52 511.72 279.52 511.72C279.52 511.72 276.43 469.25 279.52 426.72C282.61 384.19 297.52 348.03 297.52 348.03L377.87 366.24L389.59 368.89C388.93 452.25 430.93 538.49 431.62 539.82L431.63 539.84Z" fill="#126EB3"/>
<path id="Vector_19" d="M389.07 141.11L402.07 149.18C402.07 149.18 398.23 160.01 395.17 161.18L379.23 154.31L389.07 141.11Z" fill="url(#paint9_linear)"/>
<g id="Head">
<path id="Vector_20" d="M395.72 148.58C395.196 151.954 394.315 155.263 393.09 158.45C393.422 158.43 393.752 158.504 394.044 158.663C394.336 158.822 394.577 159.06 394.74 159.35C396.64 162.52 392.2 173.13 386.4 171.93C383.17 177.3 379.48 182.54 374.47 186.3C363.25 194.72 345.93 193.57 335.93 183.77C328.56 176.56 325.41 165.85 325.47 155.54C325.54 143.54 328.77 124.47 336.33 114.62C343.89 104.77 360.02 108.56 369.94 111.95C377.61 114.57 385.35 118.16 390.32 124.56C395.49 131.22 396.93 140.24 395.72 148.58Z" fill="url(#paint10_linear)"/>
<path id="Vector_21" d="M327.64 101.72C329.98 98.52 329 94.11 329.3 90.16C329.66 85.47 332.64 80.55 337.3 79.8C339.25 79.48 341.24 79.92 343.22 79.9C347.22 79.9 350.98 77.9 354.75 76.49C358.52 75.08 362.93 74.16 366.47 76.09C368.66 77.28 370.19 79.39 372.06 81.09C374.896 83.5475 378.489 84.9592 382.24 85.09C385.24 85.19 388.3 84.44 391.34 84.42C394.38 84.4 397.73 85.32 399.34 87.88C401.11 90.61 400.4 94.19 401 97.39C401.45 99.76 403.29 101.23 405.36 102.49C407.43 103.75 409.73 104.8 411.17 106.74C411.922 107.888 412.41 109.188 412.599 110.547C412.787 111.907 412.671 113.291 412.26 114.6C411.423 117.209 410.145 119.654 408.48 121.83C407.48 123.3 406.35 124.95 406.62 126.72C406.97 129.08 409.49 130.36 411 132.2C411.641 133.073 412.087 134.073 412.309 135.132C412.53 136.192 412.523 137.287 412.286 138.344C412.049 139.4 411.588 140.393 410.935 141.257C410.282 142.121 409.452 142.834 408.5 143.35C407.26 143.93 405.84 144.18 404.8 145.07C402.35 147.19 403.38 151.65 400.94 153.78C398.94 155.56 395.47 154.49 393.81 152.34C392.15 150.19 388.32 144.72 387.93 142.03C387.23 137.69 389.62 135.75 386.63 132.53C383.13 128.78 377.8 127.53 373.05 125.63C367.18 123.24 359.97 123.73 354.16 121.2C349.03 118.96 341.58 116.7 336.38 114.62C331.18 112.54 330.71 106.39 327.64 101.72Z" fill="#113855"/>
<path id="Vector_22" d="M328.44 102.04C328.44 102.04 311.22 102.34 307.01 108.33C302.8 114.32 298.74 134.18 298.74 134.18L357.56 160.03C357.56 160.03 365.34 163.43 372.07 158.62C378.8 153.81 390.42 149.9 389.94 143.77C389.46 137.64 394.22 131.37 384.64 126.59C375.06 121.81 334.79 115.19 328.44 102.04Z" fill="url(#paint11_radial)"/>
<path id="Vector_23" d="M297.93 121.48C298.39 119.86 301.08 118.3 302.66 118.89C315.41 123.66 364.75 143.04 370.2 143.04C376.45 143.04 389.98 140.29 389.98 140.29C390.258 141.433 390.258 142.627 389.98 143.77C389.47 145.12 373.65 151.27 366.8 150.13C360.8 149.13 311.59 132.26 299.88 127.86C298.49 127.34 297.2 124.1 297.6 122.66L297.93 121.48Z" fill="url(#paint12_radial)"/>
<path id="Vector_24" d="M307.01 108.33C307.01 108.33 365.64 129.93 368.11 132C370.58 134.07 366.76 149.33 363.17 156.73C359.58 164.13 353.41 161.19 353.41 161.19L300.24 140.35C300.24 140.35 296.79 138.11 300.24 126.44C303.69 114.77 305.58 111.09 307.01 108.33Z" fill="url(#paint13_radial)"/>
<path id="Vector_25" d="M389.07 141.11L402.07 149.18C402.07 149.18 398.23 160.01 395.17 161.18L379.23 154.31L389.07 141.11Z" fill="#E9A80C"/>
</g>
<path id="Vector_26" d="M283.31 220.86H308.59C310.184 220.859 311.758 221.21 313.199 221.889C314.641 222.568 315.915 223.558 316.929 224.787C317.943 226.016 318.673 227.455 319.065 228.999C319.458 230.543 319.504 232.156 319.2 233.72L319.14 234.05L281.41 231.5L283.31 220.86Z" fill="url(#paint14_linear)"/>
<path id="Vector_27" d="M431.62 539.82C379.55 485.05 377.84 366.24 377.84 366.24L389.56 368.89C388.93 452.25 430.93 538.49 431.62 539.82Z" fill="#113855"/>
<path id="Vector_28" d="M339.32 402.72C334.73 402.79 329.07 405.47 321.81 411.62C291.67 437.12 301.16 523.72 301.16 523.72L292.16 528.82C284.62 483.44 284.16 444.42 307.33 413.3C316.46 400.95 337.93 402.57 339.32 402.72Z" fill="#113855"/>
<g id="Panel2">
<path id="Vector_29" d="M491.93 20.52L626.33 74.72C628.527 75.6041 630.411 77.1225 631.741 79.0817C633.072 81.0408 633.788 83.3518 633.8 85.72V316.02C633.806 317.998 633.321 319.948 632.387 321.692C631.453 323.436 630.099 324.92 628.449 326.011C626.798 327.102 624.903 327.766 622.932 327.942C620.961 328.118 618.978 327.801 617.16 327.02L479.93 267.95C477.764 267.018 475.922 265.466 474.638 263.488C473.353 261.511 472.682 259.198 472.71 256.84L475.58 31.44C475.608 29.5059 476.106 27.6077 477.031 25.9086C477.955 24.2095 479.279 22.7605 480.887 21.6862C482.496 20.6118 484.341 19.9444 486.265 19.7413C488.188 19.5381 490.133 19.8054 491.93 20.52Z" fill="#E9A80C"/>
<path id="Vector_30" d="M483.93 25.34L618.25 79.52C620.456 80.4079 622.347 81.9356 623.678 83.9065C625.009 85.8775 625.72 88.2016 625.72 90.58V320.84C625.726 322.818 625.241 324.768 624.307 326.512C623.373 328.256 622.019 329.74 620.369 330.831C618.718 331.922 616.823 332.586 614.852 332.762C612.881 332.938 610.898 332.621 609.08 331.84L471.84 272.84C469.674 271.909 467.833 270.356 466.55 268.379C465.267 266.401 464.598 264.087 464.63 261.73L467.49 36.33C467.501 34.3787 467.991 32.4599 468.915 30.7415C469.84 29.0232 471.172 27.5576 472.794 26.4732C474.416 25.3887 476.28 24.7184 478.221 24.5208C480.162 24.3233 482.123 24.6045 483.93 25.34Z" fill="#E9A80C"/>
<path id="Vector_31" d="M483.301 25.8805L617.621 80.0605C619.827 80.9484 621.718 82.4761 623.049 84.4471C624.38 86.418 625.091 88.7421 625.091 91.1205V321.381C625.098 323.359 624.612 325.308 623.678 327.052C622.744 328.796 621.39 330.281 619.74 331.372C618.09 332.463 616.194 333.126 614.223 333.302C612.252 333.478 610.269 333.162 608.451 332.381L471.211 273.381C469.045 272.449 467.204 270.897 465.921 268.919C464.638 266.942 463.97 264.628 464.001 262.271L466.861 36.8705C466.872 34.9192 467.362 33.0004 468.287 31.2821C469.211 29.5637 470.543 28.0982 472.165 27.0137C473.787 25.9292 475.651 25.2589 477.592 25.0613C479.533 24.8638 481.494 25.1451 483.301 25.8805Z" fill="url(#paint15_linear)"/>
</g>
</g>
<defs>
<linearGradient id="paint0_linear" x1="158.01" y1="580.5" x2="111.59" y2="150.54" gradientUnits="userSpaceOnUse">
<stop offset="0.01"/>
<stop offset="0.99" stop-opacity="0"/>
</linearGradient>
<linearGradient id="paint1_linear" x1="437.57" y1="338.69" x2="279.01" y2="260.41" gradientUnits="userSpaceOnUse">
<stop offset="0.01"/>
<stop offset="0.15" stop-opacity="0.48"/>
<stop offset="0.99" stop-opacity="0"/>
</linearGradient>
<linearGradient id="paint2_linear" x1="20029.6" y1="4454.61" x2="17828.4" y2="3598.1" gradientUnits="userSpaceOnUse">
<stop offset="0.01"/>
<stop offset="0.99" stop-opacity="0"/>
</linearGradient>
<linearGradient id="paint3_linear" x1="319.34" y1="313.9" x2="316.2" y2="317.15" gradientUnits="userSpaceOnUse">
<stop stop-color="#ECC4D7"/>
<stop offset="0.42" stop-color="#EFD4D1"/>
<stop offset="1" stop-color="#F2EAC9"/>
</linearGradient>
<linearGradient id="paint4_linear" x1="57839.6" y1="17849.9" x2="78814.8" y2="17849.9" gradientUnits="userSpaceOnUse">
<stop stop-color="#ECC4D7"/>
<stop offset="0.42" stop-color="#EFD4D1"/>
<stop offset="1" stop-color="#F2EAC9"/>
</linearGradient>
<linearGradient id="paint5_linear" x1="57839.6" y1="17849.9" x2="78814.8" y2="17849.9" gradientUnits="userSpaceOnUse">
<stop stop-color="#ECC4D7"/>
<stop offset="0.42" stop-color="#EFD4D1"/>
<stop offset="1" stop-color="#F2EAC9"/>
</linearGradient>
<linearGradient id="paint6_linear" x1="371.03" y1="187.76" x2="383.52" y2="204.04" gradientUnits="userSpaceOnUse">
<stop stop-color="#ECC4D7"/>
<stop offset="0.83" stop-color="#F2EAC9"/>
</linearGradient>
<linearGradient id="paint7_linear" x1="21558" y1="20663.4" x2="25794.8" y2="20663.4" gradientUnits="userSpaceOnUse">
<stop stop-color="#ECC4D7"/>
<stop offset="0.42" stop-color="#EFD4D1"/>
<stop offset="1" stop-color="#F2EAC9"/>
</linearGradient>
<linearGradient id="paint8_linear" x1="9667.84" y1="6368.43" x2="10498.6" y2="6368.43" gradientUnits="userSpaceOnUse">
<stop stop-color="#ECC4D7"/>
<stop offset="0.42" stop-color="#EFD4D1"/>
<stop offset="1" stop-color="#F2EAC9"/>
</linearGradient>
<linearGradient id="paint9_linear" x1="11806.6" y1="2977.6" x2="11678.3" y2="3269.67" gradientUnits="userSpaceOnUse">
<stop offset="0.01"/>
<stop offset="0.99" stop-opacity="0"/>
</linearGradient>
<linearGradient id="paint10_linear" x1="339" y1="108" x2="360.796" y2="191.937" gradientUnits="userSpaceOnUse">
<stop stop-color="#ECC4D7"/>
<stop offset="1" stop-color="#EFD4D1"/>
</linearGradient>
<radialGradient id="paint11_radial" cx="0" cy="0" r="1" gradientUnits="userSpaceOnUse" gradientTransform="translate(344.723 131.618) rotate(90) scale(29.5782 45.9828)">
<stop offset="0.260417" stop-color="#E7AA19"/>
<stop offset="1" stop-color="#72540D"/>
</radialGradient>
<radialGradient id="paint12_radial" cx="0" cy="0" r="1" gradientUnits="userSpaceOnUse" gradientTransform="translate(343.857 134.516) rotate(90) scale(15.7538 46.3312)">
<stop offset="0.260417" stop-color="#E7AA19"/>
<stop offset="1" stop-color="#72540D"/>
</radialGradient>
<radialGradient id="paint13_radial" cx="0" cy="0" r="1" gradientUnits="userSpaceOnUse" gradientTransform="translate(333.802 135.048) rotate(90) scale(26.7182 35.0948)">
<stop offset="0.260417" stop-color="#E7AA19"/>
<stop offset="1" stop-color="#72540D"/>
</radialGradient>
<linearGradient id="paint14_linear" x1="15901.8" y1="3535.51" x2="15852.6" y2="2986.42" gradientUnits="userSpaceOnUse">
<stop offset="0.01"/>
<stop offset="0.99" stop-opacity="0"/>
</linearGradient>
<linearGradient id="paint15_linear" x1="544.546" y1="25" x2="544.546" y2="333.35" gradientUnits="userSpaceOnUse">
<stop offset="0.473958" stop-color="#E9A80C"/>
<stop offset="1" stop-color="#40300B"/>
</linearGradient>
<clipPath id="clip0">
<rect width="633.8" height="597.29" fill="white"/>
</clipPath>
</defs>
</svg>
